<?xml version="1.0" encoding="utf-8"?>
<!-- Generator: Adobe Illustrator 15.0.0, SVG Export Plug-In . SVG Version: 6.00 Build 0)  -->
<!DOCTYPE svg PUBLIC "-//W3C//DTD SVG 1.1//EN" "http://www.w3.org/Graphics/SVG/1.1/DTD/svg11.dtd">
<svg version="1.1" id="圖層_1" xmlns="http://www.w3.org/2000/svg" xmlns:xlink="http://www.w3.org/1999/xlink" x="0px" y="0px"
	 width="15.999px" height="64.001px" viewBox="0 0 15.999 64.001" enable-background="new 0 0 15.999 64.001" xml:space="preserve">
<g opacity="0.7">
</g>
<g opacity="0.7">
</g>
<g opacity="0.7">
	<path fill="#333333" d="M5.862,56.832l0.317,0.215l0.406,0.255c0.807,0.496,1.56,0.494,2.369-0.002l0.663-0.431l5.684-3.711v-0.813
		c0-0.941-0.765-1.704-1.707-1.704H2.391c-0.941,0-1.705,0.763-1.705,1.704v1.004L5.862,56.832z"/>
	<path fill="#333333" d="M10.226,57.492l-0.353,0.22l-0.457,0.306c-0.552,0.338-1.102,0.506-1.65,0.506
		c-0.546,0-1.09-0.166-1.63-0.498l-0.789-0.511l-4.661-3.021v5.174c0,0.941,0.765,1.704,1.705,1.704h11.204
		c0.942,0,1.707-0.763,1.707-1.704v-5.465L10.226,57.492z"/>
</g>
<g opacity="0.7">
	<path fill="#333333" d="M13.835,39.488H13.21v1.177c0,1.054-0.855,1.908-1.91,1.908H4.689c-1.056,0-1.909-0.854-1.909-1.908v-1.177
		H2.155c-0.813,0-1.469,0.658-1.469,1.47v4.112c0,0.813,0.656,1.472,1.469,1.472h11.68c0.811,0,1.467-0.659,1.467-1.472v-4.112
		C15.302,40.146,14.646,39.488,13.835,39.488 M13.022,44.785c0,0.186-0.15,0.336-0.336,0.336h-0.516
		c-0.186,0-0.336-0.15-0.336-0.336s0.15-0.336,0.336-0.336h0.516C12.872,44.449,13.022,44.6,13.022,44.785"/>
	<path fill="#333333" d="M10.511,35.792h1.949l-2.242-2.243v1.95C10.218,35.66,10.349,35.792,10.511,35.792"/>
	<path fill="#333333" d="M10.233,36.328c-0.324,0-0.588-0.262-0.588-0.586v-2.276H4.689c-0.649,0-1.177,0.526-1.177,1.175v3.268
		v2.757c0,0.648,0.527,1.173,1.177,1.173H11.3c0.648,0,1.174-0.524,1.174-1.173v-2.829v-1.508H10.233z M4.903,37.35h3.479
		c0.164,0,0.293,0.133,0.293,0.294c0,0.178-0.129,0.31-0.293,0.31H4.903c-0.162,0-0.293-0.132-0.293-0.294
		C4.61,37.482,4.741,37.35,4.903,37.35 M4.903,39.033h3.479c0.164,0,0.293,0.134,0.293,0.294c0,0.178-0.129,0.311-0.293,0.311H4.903
		c-0.162,0-0.293-0.133-0.293-0.295C4.61,39.167,4.741,39.033,4.903,39.033"/>
</g>
<path opacity="0.7" fill="#333333" d="M14.79,28.352c0.15-0.199,0.139-0.479-0.043-0.666c-0.021-0.021-0.045-0.037-0.07-0.057
	v-0.003l-2.963-2.118l-0.004,0.004c-0.197-0.147-0.477-0.132-0.656,0.049c-0.018,0.017-0.033,0.036-0.048,0.058
	c-0.009,0.013-0.018,0.021-0.026,0.037c-0.197,0.284-0.197,0.32-0.357,0.566c-0.229,0.36-0.491,0.911-0.752,1.539
	c-0.832-0.129-2.072-0.852-3.428-2.207s-2.078-2.596-2.207-3.428c0.629-0.261,1.18-0.524,1.539-0.752
	c0.246-0.159,0.281-0.159,0.568-0.356c0.012-0.009,0.023-0.017,0.036-0.024l0.002-0.004c0.017-0.013,0.039-0.028,0.058-0.045
	c0.179-0.179,0.191-0.458,0.049-0.658v-0.002L4.37,17.319H4.366c-0.018-0.024-0.035-0.046-0.057-0.07
	c-0.182-0.18-0.468-0.192-0.666-0.041c-1.42,0.973-2.705,2.041-2.535,3.306c0.182,1.358,1.798,4.345,3.912,6.46
	c2.115,2.115,5.106,3.732,6.461,3.912C12.748,31.056,13.815,29.771,14.79,28.352"/>
<path id="icon-add" opacity="0.7" fill="#333333" d="M7.992,0.347c-3.433,0-6.217,2.677-6.217,5.972
	c0,3.224,3.585,6.928,5.313,8.911c0.491,0.565,1.321,0.565,1.812,0c1.724-1.983,5.313-5.585,5.313-8.911
	C14.212,3.024,11.429,0.347,7.992,0.347L7.992,0.347z M7.992,8.667c-1.469,0-2.655-1.143-2.655-2.552
	c0-1.405,1.187-2.548,2.655-2.548c1.468,0,2.658,1.143,2.658,2.548C10.65,7.524,9.46,8.667,7.992,8.667L7.992,8.667z"/>
</svg>
