<?xml version="1.0" encoding="utf-8"?>
<!-- Generator: Adobe Illustrator 15.0.0, SVG Export Plug-In . SVG Version: 6.00 Build 0)  -->
<!DOCTYPE svg PUBLIC "-//W3C//DTD SVG 1.1//EN" "http://www.w3.org/Graphics/SVG/1.1/DTD/svg11.dtd">
<svg version="1.1" id="圖層_1" xmlns="http://www.w3.org/2000/svg" xmlns:xlink="http://www.w3.org/1999/xlink" x="0px" y="0px"
	 width="119.991px" height="21.004px" viewBox="-8.667 -1.516 119.991 21.004"
	 enable-background="new -8.667 -1.516 119.991 21.004" xml:space="preserve">
<g>
	<path fill="#221E1F" d="M17.212,2.839c-0.786-0.356-3.084-1.176-5.73-1.176c-2.189,0-3.928,0.883-4.28,2.193
		c-0.989,3.688,10.548,3.56,9.086,9.015c-0.982,3.661-5.321,5.102-10.253,5.102C3.292,17.972,0.7,17.51,0,17.316l0.727-2.711
		c0.989,0.459,3.545,1.53,6.418,1.53c2.549,0,4.582-0.75,5.053-2.512c1.061-3.956-10.506-3.725-9.05-9.148
		C3.91,1.632,7.289,0,12.351,0c2.259,0,4.587,0.324,5.498,0.456L17.212,2.839z"/>
	<path fill="#221E1F" d="M22.836,0.26h3.561l-2.216,8.27h0.067c0.824-0.883,3.062-3.139,6.786-3.139
		c2.976,0,3.772,1.798,3.308,3.523l-2.358,8.797h-3.596l2.017-7.519c0.409-1.536,0.443-2.874-1.356-2.874
		c-3.529,0-5.594,3.921-5.988,5.392l-1.34,5.001h-3.559L22.836,0.26z"/>
	<path fill="#221E1F" d="M47.129,14.831h-0.064c-0.821,0.885-3.029,3.142-6.722,3.142c-3.007,0-3.809-1.767-3.335-3.531l2.346-8.756
		h3.594L40.938,13.2c-0.401,1.496-0.443,2.875,1.354,2.875c3.527,0,5.589-3.926,5.981-5.395l1.344-4.996h3.56L49.956,17.71h-3.598
		L47.129,14.831z"/>
	<path fill="#221E1F" d="M62.965,17.807c-0.754,0.128-1.709,0.165-2.527,0.165c-3.365,0-5.104-0.723-4.471-3.076l2.117-7.904h-2.711
		l0.352-1.307h2.713L59.2,2.839l3.971-1.537L62,5.685h4.605l-0.35,1.307h-4.607l-1.85,6.892c-0.48,1.797-0.445,2.648,1.844,2.648
		c0.586,0,1.189-0.063,1.719-0.197L62.965,17.807z"/>
	<path fill="#221E1F" d="M72.93,17.807c-0.756,0.128-1.707,0.165-2.523,0.165c-3.371,0-5.135-0.723-4.508-3.076l2.119-7.904H65.34
		l0.354-1.307h2.678l0.762-2.847l4.004-1.537l-1.17,4.384h4.607l-0.35,1.307h-4.611l-1.846,6.893
		c-0.48,1.797-0.484,2.648,1.84,2.648c0.551,0,1.16-0.063,1.715-0.197L72.93,17.807z"/>
	<polygon fill="#221E1F" points="80.313,0.26 83.875,0.26 79.198,17.711 75.637,17.711 	"/>
	<path fill="#221E1F" d="M94.784,9.182h-6.502c0.281-0.689,1.338-2.681,4.08-2.681C95.043,6.502,95.032,8.263,94.784,9.182
		 M87.911,10.321h10.098c0.619-2.315,0.307-4.932-5.152-4.932c-5.322,0-7.844,2.45-8.736,5.778
		c-1.295,4.842,1.936,6.804,6.609,6.804c2.121,0,3.504-0.261,5.084-0.688l0.307-1.147c-1.131,0.332-2.252,0.491-3.332,0.491
		C87.725,16.628,87.282,12.675,87.911,10.321"/>
	<path fill="#221E1F" d="M100.459,0c1.223,0,2.197,0.993,2.197,2.234c0,1.262-0.977,2.244-2.207,2.244
		c-1.221,0-2.215-0.982-2.215-2.244C98.235,0.993,99.229,0,100.45,0H100.459z M100.452,0.347c-0.984,0-1.787,0.846-1.787,1.888
		c0,1.063,0.803,1.896,1.795,1.896c0.994,0.011,1.789-0.835,1.789-1.887c0-1.053-0.795-1.897-1.789-1.897H100.452z M100.034,3.535
		h-0.395V1.043c0.205-0.03,0.404-0.061,0.703-0.061c0.379,0,0.625,0.08,0.773,0.188c0.15,0.108,0.23,0.278,0.23,0.518
		c0,0.327-0.221,0.524-0.488,0.604v0.021c0.221,0.037,0.367,0.237,0.418,0.604c0.059,0.389,0.117,0.535,0.158,0.615h-0.418
		c-0.059-0.08-0.119-0.309-0.168-0.638c-0.061-0.316-0.221-0.437-0.537-0.437h-0.277V3.535z M100.034,2.155h0.289
		c0.328,0,0.607-0.12,0.607-0.427c0-0.22-0.162-0.438-0.607-0.438c-0.131,0-0.219,0.011-0.289,0.02V2.155z"/>
</g>
</svg>
