<?xml version="1.0" encoding="utf-8"?>
<!-- Generator: Adobe Illustrator 15.0.0, SVG Export Plug-In . SVG Version: 6.00 Build 0)  -->
<!DOCTYPE svg PUBLIC "-//W3C//DTD SVG 1.1//EN" "http://www.w3.org/Graphics/SVG/1.1/DTD/svg11.dtd">
<svg version="1.1" id="圖層_1" xmlns="http://www.w3.org/2000/svg" xmlns:xlink="http://www.w3.org/1999/xlink" x="0px" y="0px"
	 width="102.657px" height="17.972px" viewBox="0 0 102.657 17.972" enable-background="new 0 0 102.657 17.972"
	 xml:space="preserve">
<g>
	<path fill="#FFFFFF" d="M17.212,2.839c-0.786-0.357-3.084-1.176-5.73-1.176c-2.189,0-3.928,0.883-4.28,2.193
		c-0.989,3.688,10.548,3.56,9.086,9.015c-0.982,3.661-5.321,5.101-10.253,5.101c-2.744,0-5.336-0.461-6.035-0.656l0.727-2.711
		c0.989,0.459,3.545,1.531,6.418,1.531c2.549,0,4.582-0.75,5.053-2.512c1.061-3.956-10.506-3.725-9.05-9.149
		C3.909,1.632,7.288,0,12.35,0c2.259,0,4.587,0.324,5.498,0.456L17.212,2.839z"/>
	<path fill="#FFFFFF" d="M22.836,0.26h3.561l-2.216,8.269h0.067c0.824-0.883,3.062-3.139,6.786-3.139
		c2.976,0,3.772,1.798,3.308,3.524l-2.358,8.797h-3.596l2.017-7.519c0.409-1.536,0.443-2.874-1.356-2.874
		c-3.529,0-5.594,3.921-5.988,5.392l-1.34,5.001h-3.559L22.836,0.26z"/>
	<path fill="#FFFFFF" d="M47.129,14.831h-0.064c-0.821,0.885-3.029,3.141-6.722,3.141c-3.007,0-3.809-1.766-3.335-3.531l2.346-8.756
		h3.594L40.937,13.2c-0.401,1.496-0.443,2.875,1.354,2.875c3.527,0,5.589-3.926,5.981-5.395l1.344-4.996h3.561l-3.222,12.026h-3.598
		L47.129,14.831z"/>
	<path fill="#FFFFFF" d="M62.966,17.807c-0.755,0.128-1.709,0.165-2.529,0.165c-3.365,0-5.102-0.722-4.469-3.076l2.117-7.904h-2.712
		l0.352-1.307h2.713l0.761-2.846l3.972-1.537L62,5.685h4.606l-0.349,1.307h-4.609L59.8,13.884c-0.481,1.796-0.447,2.648,1.842,2.648
		c0.587,0,1.19-0.063,1.719-0.197L62.966,17.807z"/>
	<path fill="#FFFFFF" d="M72.93,17.807c-0.756,0.128-1.707,0.165-2.523,0.165c-3.372,0-5.136-0.722-4.508-3.076l2.119-7.904h-2.677
		l0.352-1.307h2.679l0.761-2.846l4.004-1.537l-1.17,4.383h4.607l-0.35,1.307h-4.61l-1.847,6.893
		c-0.479,1.796-0.483,2.648,1.841,2.648c0.551,0,1.159-0.063,1.715-0.197L72.93,17.807z"/>
	<polygon fill="#FFFFFF" points="80.313,0.26 83.876,0.26 79.198,17.711 75.636,17.711 	"/>
	<path fill="#FFFFFF" d="M94.783,9.182h-6.502c0.281-0.689,1.339-2.68,4.081-2.68C95.043,6.502,95.031,8.263,94.783,9.182
		 M87.91,10.321h10.099c0.618-2.315,0.306-4.932-5.154-4.932c-5.322,0-7.843,2.451-8.735,5.779
		c-1.295,4.842,1.935,6.803,6.609,6.803c2.121,0,3.503-0.26,5.084-0.688l0.306-1.147c-1.131,0.332-2.251,0.491-3.332,0.491
		C87.724,16.628,87.281,12.675,87.91,10.321"/>
	<path fill="#FFFFFF" d="M100.459,0c1.222,0,2.197,0.993,2.197,2.234c0,1.262-0.976,2.244-2.206,2.244
		c-1.222,0-2.215-0.982-2.215-2.244c0-1.241,0.993-2.234,2.215-2.234H100.459z M100.451,0.347c-0.984,0-1.787,0.846-1.787,1.888
		c0,1.063,0.803,1.897,1.796,1.897c0.994,0.01,1.789-0.835,1.789-1.887c0-1.053-0.795-1.898-1.789-1.898H100.451z M100.034,3.535
		h-0.396V1.043c0.206-0.031,0.406-0.061,0.704-0.061c0.378,0,0.625,0.08,0.773,0.189c0.15,0.108,0.23,0.278,0.23,0.517
		c0,0.327-0.22,0.525-0.487,0.605v0.021c0.22,0.037,0.367,0.238,0.417,0.605c0.059,0.388,0.118,0.535,0.158,0.615h-0.417
		c-0.059-0.08-0.119-0.309-0.169-0.638c-0.059-0.316-0.219-0.436-0.536-0.436h-0.277V3.535z M100.034,2.155h0.288
		c0.329,0,0.607-0.12,0.607-0.427c0-0.219-0.161-0.438-0.607-0.438c-0.13,0-0.218,0.011-0.288,0.019V2.155z"/>
</g>
</svg>
