<?xml version="1.0" encoding="utf-8"?>
<!-- Generator: Adobe Illustrator 15.0.0, SVG Export Plug-In . SVG Version: 6.00 Build 0)  -->
<!DOCTYPE svg PUBLIC "-//W3C//DTD SVG 1.1//EN" "http://www.w3.org/Graphics/SVG/1.1/DTD/svg11.dtd">
<svg version="1.1" id="圖層_1" xmlns="http://www.w3.org/2000/svg" xmlns:xlink="http://www.w3.org/1999/xlink" x="0px" y="0px"
	 width="142.418px" height="56.693px" viewBox="0 0 142.418 56.693" enable-background="new 0 0 142.418 56.693"
	 xml:space="preserve">
<g>
	<g>
		<path fill="#2990D0" d="M263.374,201.974c4.1,0.961,7.71,3.198,10.391,6.271l-8.336-22.906c-0.723-1.977-2.907-2.995-4.886-2.274
			c-1.975,0.718-2.995,2.903-2.274,4.882L263.374,201.974z"/>
		<path fill="#2990D0" d="M274.36,188.079c-0.185-2.095-2.029-3.646-4.124-3.462c-1.227,0.107-2.262,0.788-2.879,1.752l9.022,24.788
			L274.36,188.079z"/>
		<path fill="#2990D0" d="M278.868,188.59c-1.073-0.188-2.119,0.093-2.928,0.693l2.212,25.297l3.808-21.577
			C282.32,190.93,280.939,188.955,278.868,188.59z"/>
		<path fill="#82C1EA" d="M276.467,216.1c-2.21-7.578-9.176-13.12-17.457-13.168c4.55,1.352,8.292,4.233,10.457,7.965
			c1.282,2.212,2.021,4.713,2.021,7.371c0,7.172-5.277,13.24-12.579,15.369c1.797,0.521,3.718,0.816,5.72,0.816
			c3.131,0,6.079-0.699,8.654-1.924c2.45-3.114,3.926-7.031,3.926-11.301C277.209,219.445,276.94,217.73,276.467,216.1z"/>
		<path fill="#3AB483" d="M264.629,234.454c-2,0-3.922-0.297-5.72-0.818c-7.304-2.127-12.576-8.196-12.576-15.368
			c0,0.159,0.016,0.317,0.021,0.475c0.049-1.637,0.715-3.113,1.771-4.215c-0.597,0.57-1.157,1.181-1.653,1.824
			c-2.016,2.599-3.193,5.746-3.193,9.135c0,2.657,0.736,5.155,2.019,7.369c0.359,0.619,0.754,1.217,1.198,1.789
			c3.259,3.02,7.613,4.883,12.413,4.883c5.835,0,11.023-2.74,14.374-6.996C270.708,233.755,267.76,234.454,264.629,234.454z"/>
		<path fill="#2990D0" d="M269.467,210.896c-2.165-3.73-5.907-6.613-10.457-7.965c-0.03,0-0.066-0.005-0.101-0.005
			c-0.032,0-0.069,0.005-0.103,0.005c-10.058,0.057-18.191,8.224-18.191,18.298c0,4.27,1.473,8.187,3.923,11.301
			c0.594,0.754,1.251,1.459,1.957,2.113c-0.444-0.572-0.837-1.17-1.197-1.789c-1.282-2.215-2.019-4.713-2.019-7.369
			c0-3.389,1.179-6.536,3.193-9.135c0.644-0.833,1.379-1.609,2.185-2.322c0.043-0.032,0.098-0.078,0.172-0.135
			c1.073-0.832,2.423-1.328,3.885-1.328c3.013,0,5.526,2.093,6.195,4.898c0.663-2.807,3.181-4.898,6.192-4.898
			c3.453,0,6.257,2.75,6.363,6.176c0.007-0.156,0.022-0.314,0.022-0.475C271.488,215.61,270.749,213.109,269.467,210.896z"/>
	</g>
	<g>
		<g>
			<path fill="#2990D0" d="M286.629,231.964h1.517c0.025,0.578,0.206,1.038,0.537,1.381c0.329,0.344,0.761,0.515,1.289,0.515
				c0.584,0,1.051-0.17,1.398-0.515c0.352-0.344,0.527-0.804,0.527-1.381c0-0.502-0.129-0.892-0.388-1.166
				c-0.257-0.274-0.793-0.531-1.609-0.771c-0.043-0.01-0.115-0.027-0.218-0.053c-0.979-0.252-1.686-0.66-2.124-1.23
				c-0.199-0.248-0.346-0.515-0.446-0.798c-0.098-0.282-0.146-0.583-0.146-0.903c0-0.951,0.298-1.723,0.89-2.311
				c0.594-0.586,1.371-0.882,2.333-0.882c0.893,0,1.612,0.264,2.159,0.791c0.551,0.526,0.853,1.248,0.911,2.163h-1.579
				c-0.027-0.44-0.184-0.801-0.47-1.072c-0.284-0.271-0.646-0.408-1.079-0.408c-0.464,0-0.842,0.151-1.133,0.453
				c-0.292,0.303-0.438,0.695-0.438,1.172c0,0.17,0.025,0.327,0.079,0.475c0.054,0.148,0.136,0.285,0.248,0.414
				c0.23,0.259,0.723,0.482,1.478,0.671c0.348,0.088,0.614,0.161,0.801,0.222c0.77,0.273,1.355,0.674,1.752,1.197
				c0.398,0.524,0.6,1.154,0.6,1.888c0,1.074-0.321,1.938-0.964,2.595c-0.643,0.657-1.489,0.985-2.55,0.985
				c-0.991,0-1.802-0.313-2.424-0.942C286.955,233.822,286.638,232.993,286.629,231.964z"/>
			<path fill="#2990D0" d="M296.675,235.173h-1.629v-11.116h2.511l3.384,8.597l3.382-8.597h2.477v11.116h-1.587l0.112-9.65
				l-3.792,9.65h-1.202l-3.775-9.65L296.675,235.173z"/>
			<path fill="#2990D0" d="M310.445,231.935l-1.316,3.237h-1.785l4.562-11.116h1.643l4.563,11.116h-1.854l-1.283-3.237H310.445
				L310.445,231.935z M314.365,230.369l-1.643-4.222l-1.678,4.222H314.365z"/>
			<path fill="#2990D0" d="M320.443,235.173h-1.692v-11.116h3.367c1.399,0,2.47,0.307,3.206,0.924
				c0.739,0.616,1.105,1.506,1.105,2.672c0,0.904-0.308,1.664-0.925,2.272c-0.617,0.606-1.412,0.935-2.384,0.979l3.311,4.269h-2.115
				l-3.872-5.162L320.443,235.173L320.443,235.173z M320.443,229.828h0.864c1.17,0,2.042-0.181,2.612-0.542
				c0.571-0.361,0.859-0.911,0.859-1.649c0-0.717-0.246-1.243-0.738-1.58c-0.491-0.334-1.269-0.505-2.333-0.505h-1.266
				L320.443,229.828L320.443,229.828z"/>
			<path fill="#2990D0" d="M331.009,235.173h-1.691v-9.621h-2.181v-1.495h6.054v1.495h-2.182V235.173L331.009,235.173z"/>
			<path fill="#3AB483" d="M340.719,235.173h-1.692v-11.116h1.692v4.719h4.763v-4.719h1.688v11.116h-1.688v-4.818h-4.763V235.173z"
				/>
			<path fill="#3AB483" d="M348.678,229.546c0-0.778,0.154-1.518,0.465-2.215c0.31-0.697,0.763-1.324,1.361-1.885
				c0.566-0.53,1.195-0.93,1.888-1.203c0.691-0.271,1.438-0.408,2.234-0.408c0.817,0,1.574,0.137,2.271,0.408
				c0.698,0.273,1.336,0.677,1.913,1.219c0.592,0.554,1.039,1.177,1.339,1.861c0.299,0.688,0.448,1.429,0.448,2.224
				c0,0.789-0.13,1.516-0.386,2.18c-0.257,0.664-0.643,1.262-1.154,1.791c-0.604,0.621-1.277,1.089-2.024,1.403
				c-0.745,0.316-1.552,0.476-2.424,0.476c-0.877,0-1.686-0.16-2.426-0.481c-0.738-0.321-1.402-0.796-1.99-1.428
				c-0.498-0.523-0.873-1.121-1.129-1.79C348.805,231.027,348.678,230.31,348.678,229.546z M350.442,229.561
				c0,0.581,0.102,1.128,0.304,1.646c0.201,0.517,0.494,0.963,0.874,1.341c0.398,0.395,0.863,0.704,1.387,0.924
				c0.523,0.218,1.06,0.328,1.604,0.328c1.206,0,2.217-0.408,3.026-1.227c0.813-0.815,1.223-1.829,1.223-3.042
				c0-0.514-0.098-1.003-0.294-1.471c-0.196-0.466-0.479-0.894-0.854-1.285c-0.444-0.452-0.919-0.787-1.424-1.003
				c-0.504-0.216-1.064-0.324-1.68-0.324c-0.553,0-1.075,0.099-1.571,0.296c-0.498,0.2-0.938,0.486-1.322,0.864
				c-0.399,0.392-0.714,0.847-0.937,1.366C350.552,228.491,350.442,229.021,350.442,229.561z"/>
			<path fill="#3AB483" d="M363.756,235.173h-1.625v-11.116h2.508l3.385,8.597l3.384-8.597h2.475v11.116h-1.586l0.113-9.65
				l-3.793,9.65h-1.202l-3.775-9.65L363.756,235.173z"/>
			<path fill="#3AB483" d="M382.01,235.173h-6.061v-11.116h6.061v1.479h-4.367v3.322h4.367v1.451h-4.367v3.329h4.367V235.173z"/>
			<path fill="#3AB483" d="M394.703,232.385c-0.509,0.974-1.212,1.718-2.104,2.234c-0.895,0.517-1.935,0.773-3.115,0.773
				c-0.875,0-1.685-0.159-2.425-0.48c-0.738-0.321-1.403-0.797-1.991-1.428c-0.496-0.523-0.872-1.121-1.131-1.791
				c-0.255-0.668-0.386-1.385-0.386-2.147c0-0.773,0.157-1.509,0.466-2.204c0.311-0.692,0.766-1.326,1.362-1.896
				c0.566-0.53,1.196-0.931,1.889-1.203c0.69-0.271,1.436-0.409,2.233-0.409c1.197,0,2.248,0.271,3.154,0.81
				c0.904,0.54,1.589,1.304,2.05,2.291h-1.99c-0.373-0.494-0.831-0.865-1.378-1.115c-0.544-0.251-1.162-0.373-1.852-0.373
				c-0.553,0-1.074,0.099-1.572,0.296c-0.498,0.2-0.938,0.486-1.322,0.864c-0.4,0.391-0.714,0.847-0.937,1.367
				c-0.226,0.518-0.338,1.047-0.338,1.587c0,0.581,0.103,1.128,0.304,1.646c0.203,0.517,0.494,0.963,0.874,1.341
				c0.397,0.395,0.862,0.704,1.387,0.924c0.526,0.218,1.06,0.328,1.603,0.328c0.67,0,1.271-0.12,1.81-0.363
				c0.537-0.242,0.979-0.59,1.326-1.049h2.084V232.385z"/>
			<path fill="#3AB483" d="M398.004,231.935l-1.313,3.237h-1.787l4.562-11.116h1.644l4.562,11.116h-1.853l-1.281-3.237H398.004
				L398.004,231.935z M401.927,230.369l-1.644-4.222l-1.676,4.222H401.927z"/>
			<path fill="#3AB483" d="M408.002,235.173h-1.691v-11.116h3.366c1.401,0,2.471,0.307,3.208,0.924
				c0.735,0.616,1.105,1.506,1.105,2.672c0,0.904-0.31,1.664-0.926,2.272c-0.618,0.606-1.413,0.935-2.386,0.979l3.312,4.269h-2.117
				l-3.871-5.162V235.173z M408.002,229.828h0.865c1.172,0,2.042-0.181,2.613-0.542s0.856-0.911,0.856-1.649
				c0-0.717-0.247-1.243-0.738-1.58c-0.489-0.334-1.267-0.505-2.331-0.505H408L408.002,229.828L408.002,229.828z"/>
			<path fill="#3AB483" d="M421.647,235.173h-6.063v-11.116h6.063v1.479h-4.37v3.322h4.37v1.451h-4.37v3.329h4.37V235.173z"/>
			<path fill="#2990D0" d="M427.795,231.964h1.516c0.026,0.578,0.207,1.038,0.538,1.381c0.328,0.344,0.761,0.515,1.29,0.515
				c0.581,0,1.047-0.17,1.398-0.515c0.351-0.344,0.524-0.804,0.524-1.381c0-0.502-0.127-0.892-0.386-1.166
				c-0.256-0.274-0.793-0.531-1.609-0.771c-0.043-0.01-0.114-0.027-0.219-0.053c-0.978-0.252-1.684-0.66-2.123-1.23
				c-0.198-0.248-0.346-0.515-0.442-0.798c-0.102-0.282-0.149-0.583-0.149-0.903c0-0.951,0.297-1.723,0.891-2.311
				c0.593-0.586,1.37-0.882,2.333-0.882c0.893,0,1.611,0.264,2.16,0.791c0.548,0.526,0.851,1.248,0.908,2.163h-1.579
				c-0.025-0.44-0.184-0.801-0.469-1.072c-0.286-0.271-0.646-0.408-1.08-0.408c-0.465,0-0.843,0.151-1.133,0.453
				c-0.291,0.303-0.438,0.695-0.438,1.172c0,0.17,0.027,0.327,0.081,0.475c0.053,0.148,0.136,0.285,0.248,0.414
				c0.229,0.259,0.721,0.482,1.476,0.671c0.348,0.088,0.615,0.161,0.803,0.222c0.769,0.273,1.354,0.674,1.752,1.197
				c0.396,0.524,0.599,1.154,0.599,1.888c0,1.074-0.321,1.938-0.963,2.595c-0.643,0.657-1.493,0.985-2.552,0.985
				c-0.993,0-1.802-0.313-2.425-0.942C428.122,233.822,427.805,232.993,427.795,231.964z"/>
			<path fill="#2990D0" d="M440.07,231.171v4.002h-1.693v-4.101l-3.574-7.017h1.886l2.564,5.345l2.556-5.345h1.88L440.07,231.171z"
				/>
			<path fill="#2990D0" d="M443.693,231.964h1.515c0.024,0.578,0.204,1.038,0.535,1.381c0.332,0.344,0.763,0.515,1.291,0.515
				c0.584,0,1.049-0.17,1.399-0.515c0.35-0.344,0.525-0.804,0.525-1.381c0-0.502-0.129-0.892-0.385-1.166
				c-0.258-0.274-0.794-0.531-1.612-0.771c-0.043-0.01-0.116-0.027-0.217-0.053c-0.978-0.252-1.687-0.66-2.124-1.23
				c-0.198-0.248-0.346-0.515-0.444-0.798c-0.099-0.282-0.148-0.583-0.148-0.903c0-0.951,0.298-1.723,0.891-2.311
				c0.593-0.586,1.371-0.882,2.333-0.882c0.893,0,1.611,0.264,2.16,0.791c0.548,0.526,0.852,1.248,0.91,2.163h-1.581
				c-0.025-0.44-0.184-0.801-0.468-1.072c-0.287-0.271-0.646-0.408-1.078-0.408c-0.465,0-0.847,0.151-1.136,0.453
				c-0.291,0.303-0.438,0.695-0.438,1.172c0,0.17,0.023,0.327,0.079,0.475c0.056,0.148,0.136,0.285,0.249,0.414
				c0.229,0.259,0.723,0.482,1.475,0.671c0.35,0.088,0.615,0.161,0.803,0.222c0.771,0.273,1.354,0.674,1.75,1.197
				c0.399,0.524,0.601,1.154,0.601,1.888c0,1.074-0.321,1.938-0.963,2.595c-0.642,0.657-1.491,0.985-2.549,0.985
				c-0.992,0-1.804-0.313-2.425-0.942C444.019,233.822,443.702,232.993,443.693,231.964z"/>
			<path fill="#2990D0" d="M455.093,235.173h-1.69v-9.621h-2.183v-1.495h6.054v1.495h-2.181V235.173L455.093,235.173z"/>
			<path fill="#2990D0" d="M464.47,235.173h-6.06v-11.116h6.06v1.479h-4.366v3.322h4.366v1.451h-4.366v3.329h4.366V235.173z"/>
			<path fill="#2990D0" d="M468.166,235.173h-1.627v-11.116h2.51l3.383,8.597l3.385-8.597h2.477v11.116h-1.587l0.111-9.65
				l-3.792,9.65h-1.2l-3.776-9.65L468.166,235.173z"/>
		</g>
		<g>
			<path fill="#2990D0" d="M290.531,206.464c-1.583,0.914-2.677,1.274-3.211,1.063c-0.2-0.105-0.355-0.275-0.445-0.529
				c-0.179-0.658,0.156-1.084,0.979-1.23c2.029-0.724,3.345-1.741,3.946-2.973h-3.59c-0.247,0-0.445-0.087-0.603-0.233
				c-0.157-0.15-0.222-0.343-0.222-0.574c0-0.191,0.066-0.382,0.222-0.529c0.156-0.149,0.354-0.233,0.603-0.233h4.036v-0.213v-1.826
				h-2.186l-0.424,0.659c-0.625,0.785-1.115,1.188-1.472,1.168c-0.203,0-0.401-0.085-0.604-0.254
				c-0.155-0.19-0.246-0.383-0.269-0.573c0.021-0.233,0.136-0.468,0.356-0.681c0.29-0.253,0.735-0.87,1.314-1.739
				c0.424-0.871,0.736-1.359,0.869-1.402c0.181-0.105,0.402-0.105,0.648-0.042c0.244,0.085,0.398,0.232,0.513,0.403
				c0.11,0.232,0.11,0.467,0,0.741l-0.113,0.234h6.134c0.243,0,0.398,0.064,0.532,0.189c0.157,0.149,0.224,0.318,0.224,0.553
				c0,0.19-0.065,0.36-0.224,0.51c-0.134,0.15-0.29,0.232-0.532,0.232h-3.078v1.826v0.213h3.502c0.246,0,0.445,0.063,0.601,0.211
				c0.157,0.148,0.224,0.34,0.224,0.553s-0.067,0.401-0.224,0.552c-0.154,0.169-0.354,0.256-0.601,0.256h-3.436l3.391,2.248
				c0.199,0.149,0.313,0.383,0.379,0.637c0.022,0.233-0.066,0.447-0.245,0.659c-0.157,0.149-0.355,0.254-0.603,0.275
				c-0.246,0.021-0.491-0.063-0.736-0.275l-3.145-2.356C292.404,204.936,291.557,205.764,290.531,206.464z M291.044,215.509
				c-0.355-0.021-0.668-0.148-0.869-0.383c-0.246-0.317-0.379-0.658-0.356-0.997v-5.943c0-0.318,0.113-0.617,0.335-0.853
				c0.245-0.211,0.557-0.34,0.892-0.34h12.531c0.4-0.021,0.781,0.106,1.071,0.34c0.223,0.214,0.356,0.488,0.377,0.853v5.943
				c0,0.34-0.154,0.68-0.444,0.979c-0.291,0.253-0.646,0.401-1.004,0.401H291.044L291.044,215.509z M303.127,210.391v-1.082
				c0-0.215-0.043-0.361-0.154-0.468c-0.09-0.146-0.29-0.213-0.534-0.213h-10.013c-0.288-0.021-0.469,0.044-0.557,0.149
				c-0.112,0.148-0.18,0.298-0.155,0.53v1.082L303.127,210.391L303.127,210.391z M291.714,212.028v1.167
				c0,0.234,0.066,0.383,0.155,0.51c0.111,0.108,0.313,0.17,0.557,0.17h10.013c0.245-0.021,0.425-0.084,0.534-0.189
				c0.111-0.108,0.154-0.255,0.154-0.489v-1.167L291.714,212.028L291.714,212.028z M300.008,206.103
				c-0.381-0.021-0.646-0.148-0.825-0.384c-0.244-0.274-0.379-0.594-0.356-0.954v-6.327c0-0.298,0.112-0.553,0.335-0.784
				c0.223-0.213,0.513-0.34,0.848-0.32h5.326c0.425-0.02,0.738,0.107,1.028,0.32c0.246,0.211,0.335,0.488,0.354,0.784v6.327
				c0,0.36-0.132,0.68-0.422,0.936c-0.29,0.277-0.579,0.402-0.961,0.402H300.008L300.008,206.103z M301.302,198.885
				c-0.247,0-0.425,0.042-0.514,0.147c-0.113,0.148-0.178,0.3-0.155,0.51v4.354c0,0.212,0.067,0.383,0.178,0.487
				c0.111,0.105,0.269,0.171,0.491,0.171h2.941c0.225,0,0.403-0.065,0.536-0.171l0.135-0.487v-4.354c0-0.21-0.045-0.34-0.135-0.442
				c-0.111-0.15-0.29-0.214-0.536-0.214L301.302,198.885L301.302,198.885z"/>
			<path fill="#2990D0" d="M314.032,212.006c0.2-0.085,0.424-0.085,0.646,0.021c0.223,0.105,0.38,0.274,0.471,0.468
				c0.153,0.528-0.357,1.422-1.52,2.631c-0.623,0.64-1.114,0.936-1.45,0.871c-0.222-0.021-0.422-0.127-0.576-0.317
				c-0.155-0.191-0.225-0.403-0.201-0.614c0.046-0.234,0.201-0.447,0.425-0.618c0.689-0.529,1.247-1.188,1.672-1.953
				C313.607,212.24,313.786,212.07,314.032,212.006z M329.261,209.523c0,0.51-0.134,0.934-0.425,1.229
				c-0.312,0.277-0.758,0.428-1.336,0.447h-12.308c-0.29,0-0.515-0.086-0.67-0.233c-0.111-0.128-0.181-0.299-0.2-0.51
				c0.021-0.232,0.09-0.403,0.223-0.51c0.156-0.15,0.38-0.212,0.647-0.212h11.503c0.29,0,0.491-0.064,0.604-0.171
				s0.156-0.274,0.156-0.509v-0.212h-15.23c-0.244,0-0.421-0.063-0.555-0.213c-0.112-0.127-0.179-0.297-0.179-0.487
				c0-0.191,0.066-0.359,0.179-0.509c0.134-0.127,0.311-0.192,0.555-0.192h15.23v-0.381c0-0.192-0.044-0.319-0.134-0.427
				c-0.09-0.104-0.247-0.17-0.491-0.17h-11.728c-0.29,0-0.491-0.063-0.646-0.168c-0.134-0.149-0.201-0.341-0.224-0.573
				c0.021-0.212,0.09-0.384,0.224-0.512c0.155-0.147,0.379-0.212,0.646-0.212h12.73c0.513,0,0.848,0.128,1.093,0.403
				c0.224,0.232,0.335,0.553,0.335,0.937v1.103h2.296c0.225,0,0.4,0.065,0.536,0.192c0.109,0.125,0.177,0.297,0.177,0.509
				c0,0.17-0.067,0.341-0.177,0.487c-0.136,0.148-0.313,0.213-0.536,0.213h-2.296V209.523L329.261,209.523z M312.56,203.96
				c-0.245,0-0.424-0.063-0.579-0.212c-0.134-0.126-0.199-0.298-0.199-0.53c0-0.212,0.065-0.36,0.222-0.511
				c0.156-0.147,0.334-0.211,0.579-0.211l3.367-0.106v-1.019h-2.942c-0.246,0-0.4-0.065-0.535-0.213
				c-0.135-0.105-0.2-0.275-0.2-0.487c0-0.191,0.066-0.359,0.2-0.486c0.135-0.128,0.29-0.193,0.535-0.193h2.942v-0.849h-3.367
				c-0.245,0-0.423-0.064-0.559-0.212c-0.135-0.128-0.197-0.299-0.197-0.488s0.066-0.361,0.197-0.509
				c0.136-0.128,0.313-0.191,0.559-0.191h3.367c0-0.658,0.091-1.083,0.246-1.189c0.135-0.146,0.355-0.232,0.646-0.232
				c0.246,0,0.445,0.086,0.625,0.232c0.177,0.107,0.289,0.531,0.289,1.189h2.833c0.223,0,0.399,0.063,0.511,0.191
				c0.136,0.128,0.2,0.298,0.2,0.509c0,0.17-0.064,0.34-0.2,0.488c-0.11,0.147-0.289,0.212-0.511,0.212h-2.833v0.849h2.297
				c0.226,0,0.402,0.065,0.536,0.193c0.133,0.104,0.199,0.274,0.199,0.486c0,0.191-0.066,0.36-0.199,0.487
				c-0.134,0.148-0.313,0.213-0.536,0.213h-2.297v0.892c1.092-0.105,1.94-0.212,2.564-0.317c0.244-0.044,0.445-0.022,0.602,0.042
				c0.155,0.104,0.269,0.275,0.313,0.488c0.044,0.211,0.021,0.382-0.068,0.572c-0.066,0.148-0.224,0.256-0.513,0.319
				c-0.735,0.168-1.695,0.295-2.899,0.381c0,0.383-0.111,0.682-0.289,0.853c-0.155,0.127-0.334,0.211-0.625,0.232
				c-0.244-0.021-0.468-0.085-0.623-0.214c-0.18-0.167-0.268-0.443-0.268-0.762L312.56,203.96z M325.27,214.342
				c0.334-0.021,0.556-0.085,0.758-0.212c0.155-0.105,0.268-0.232,0.313-0.383v-0.043l-0.045-0.147
				c0.067-0.255,0.177-0.488,0.355-0.638c0.2-0.168,0.425-0.231,0.692-0.19c0.222,0.043,0.423,0.147,0.578,0.317
				c0.157,0.234,0.224,0.468,0.178,0.744l-0.044,0.318c-0.09,0.785-0.514,1.358-1.204,1.719c-0.779,0.299-3.522,0.361-8.183,0.233
				c-0.468-0.041-0.871-0.19-1.271-0.426c-0.646-0.424-0.98-1.019-0.98-1.719v-1.314c0-0.3,0.089-0.53,0.268-0.723
				c0.156-0.149,0.401-0.231,0.668-0.254c0.27,0,0.491,0.084,0.692,0.233c0.178,0.19,0.269,0.444,0.269,0.744v0.739
				c0,0.257,0.112,0.513,0.312,0.704c0.201,0.169,0.447,0.275,0.737,0.298l3.479,0.041c-0.156-0.317-0.603-0.741-1.249-1.188
				c-0.224-0.168-0.355-0.359-0.401-0.593c-0.046-0.192,0.021-0.403,0.179-0.596c0.156-0.192,0.335-0.298,0.558-0.317
				c0.445-0.041,1.182,0.467,2.184,1.528c0.201,0.233,0.291,0.426,0.27,0.637c-0.023,0.191-0.113,0.36-0.27,0.529L325.27,214.342z
				 M322.415,203.704c-0.245,0-0.424-0.063-0.533-0.211c-0.135-0.127-0.203-0.299-0.203-0.511c0-0.169,0.068-0.34,0.203-0.488
				c0.109-0.128,0.289-0.188,0.533-0.188h3.544v-0.936h-2.586c-0.245,0-0.422-0.064-0.533-0.214
				c-0.134-0.105-0.202-0.274-0.202-0.486c0-0.192,0.068-0.359,0.202-0.487c0.111-0.127,0.289-0.192,0.533-0.192h2.586v-0.849h-3.03
				c-0.223,0-0.4-0.064-0.536-0.214c-0.134-0.126-0.198-0.297-0.198-0.486c0-0.19,0.066-0.36,0.198-0.509
				c0.136-0.129,0.313-0.191,0.536-0.191h3.03c0-0.658,0.092-1.084,0.247-1.189c0.156-0.147,0.355-0.232,0.646-0.232
				c0.246,0,0.47,0.085,0.647,0.232c0.154,0.107,0.267,0.531,0.267,1.189h3.366c0.201,0,0.38,0.063,0.514,0.191
				c0.135,0.127,0.2,0.297,0.2,0.509c0,0.17-0.065,0.341-0.2,0.486c-0.135,0.149-0.313,0.214-0.514,0.214h-3.366v0.849h2.653
				c0.224,0,0.402,0.065,0.533,0.192c0.134,0.105,0.201,0.274,0.201,0.487c0,0.191-0.067,0.359-0.201,0.486
				c-0.132,0.147-0.312,0.214-0.533,0.214h-2.653v0.936h3.612c0.224,0,0.401,0.062,0.535,0.188s0.201,0.3,0.201,0.488
				c0,0.19-0.067,0.36-0.201,0.511c-0.134,0.147-0.313,0.211-0.535,0.211h-3.612c0,0.403-0.111,0.722-0.267,0.895
				c-0.156,0.125-0.357,0.211-0.647,0.232c-0.244-0.021-0.443-0.086-0.622-0.214c-0.18-0.189-0.27-0.509-0.27-0.912L322.415,203.704
				L322.415,203.704z M328.682,212.622c0-0.213,0.11-0.403,0.312-0.595c0.201-0.147,0.401-0.214,0.646-0.214
				c0.269,0.022,0.49,0.172,0.668,0.404c0.604,0.638,1.184,1.485,1.783,2.547c0.135,0.256,0.157,0.511,0.092,0.723
				c-0.046,0.213-0.18,0.383-0.424,0.531c-0.223,0.106-0.445,0.127-0.67,0.084c-0.244-0.084-0.444-0.254-0.602-0.529
				c-0.558-0.998-1.094-1.742-1.538-2.25C328.747,213.089,328.66,212.856,328.682,212.622z"/>
			<path fill="#2990D0" d="M342.28,215.552c-0.423-0.021-0.758-0.148-1.048-0.383c-0.332-0.317-0.467-0.658-0.444-0.999v-4.521
				c-0.021-0.402,0.112-0.721,0.444-1.039c0.291-0.297,0.625-0.424,1.048-0.424h4.504v-1.913h-7.245v0.616
				c0,1.721-0.2,3.419-0.558,5.073c-0.425,2.167-0.959,3.378-1.582,3.631c-0.27,0.086-0.514,0.065-0.781-0.041
				c-0.29-0.148-0.446-0.299-0.511-0.53c-0.113-0.275-0.093-0.553,0.065-0.828c0.957-2.251,1.472-4.925,1.472-7.982v-7.666
				c-0.021-0.317,0.133-0.657,0.444-0.977c0.291-0.275,0.648-0.424,1.004-0.402h14.896c0.532,0,0.959,0.191,1.293,0.529
				c0.312,0.32,0.469,0.701,0.469,1.126v2.039c0,0.401-0.177,0.806-0.513,1.146c-0.379,0.359-0.779,0.53-1.249,0.53h-5.308v2.02
				h7.135c0.289,0,0.514,0.084,0.67,0.211c0.155,0.147,0.222,0.359,0.222,0.636c0,0.214-0.065,0.425-0.222,0.595
				c-0.157,0.191-0.382,0.275-0.67,0.275h-7.135v1.912h5.238c0.425,0,0.805,0.149,1.071,0.468c0.246,0.316,0.38,0.636,0.398,0.996
				v4.521c0,0.343-0.134,0.681-0.398,0.955c-0.313,0.277-0.667,0.426-1.071,0.426L342.28,215.552L342.28,215.552L342.28,215.552z
				 M339.539,200.816h13.801c0.335-0.021,0.513-0.189,0.513-0.508v-0.956c0-0.298-0.178-0.468-0.513-0.468h-13.222
				c-0.378-0.021-0.578,0.17-0.578,0.53L339.539,200.816L339.539,200.816z M346.784,202.537h-7.245v2.019h7.245V202.537z
				 M343.304,209.925c-0.197,0-0.376,0.043-0.486,0.149c-0.112,0.106-0.136,0.254-0.136,0.445v2.674c0,0.19,0.022,0.319,0.136,0.446
				c0.11,0.129,0.266,0.189,0.486,0.189h9.522c0.18-0.021,0.356-0.084,0.47-0.189c0.109-0.105,0.176-0.256,0.201-0.446v-2.674
				c0-0.191-0.067-0.34-0.201-0.445s-0.29-0.149-0.47-0.149H343.304z"/>
			<path fill="#2990D0" d="M362.258,215.447c-0.177,0.36-0.377,0.551-0.578,0.614c-0.223,0.064-0.49,0.064-0.734-0.021
				c-0.27-0.127-0.444-0.299-0.534-0.53c-0.112-0.233-0.089-0.486,0.043-0.784c0.693-1.807,1.072-3.949,1.072-6.435v-9.746
				c-0.023-0.401,0.134-0.764,0.443-1.019c0.337-0.298,0.668-0.446,1.071-0.446h3.166c0.379,0,0.735,0.148,1.045,0.446
				c0.337,0.275,0.515,0.638,0.515,1.04v15.626c-0.021,0.553-0.178,1.063-0.488,1.466c-0.225,0.36-0.646,0.53-1.205,0.53
				c-1.315,0-2.097-0.084-2.319-0.297c-0.177-0.191-0.245-0.404-0.245-0.638c0-0.68,0.356-0.957,1.092-0.913l1.115-0.085
				c0.155-0.105,0.244-0.274,0.244-0.51v-4.332h-2.65C363.24,212.028,362.861,214.044,362.258,215.447z M365.959,202.304v-2.994
				c-0.022-0.148-0.067-0.255-0.178-0.361c-0.112-0.107-0.222-0.148-0.379-0.148h-1.538c-0.156-0.021-0.29,0.041-0.38,0.148
				c-0.113,0.106-0.179,0.254-0.158,0.384v2.974L365.959,202.304L365.959,202.304z M365.959,207.696v-3.673h-2.631v3.673H365.959z
				 M370.999,216.082c-0.18,0.149-0.401,0.234-0.667,0.234c-0.291-0.022-0.515-0.106-0.67-0.256c-0.178-0.19-0.27-0.426-0.27-0.721
				v-16.56c0-0.509,0.181-0.913,0.536-1.231c0.29-0.256,0.691-0.403,1.159-0.382h8.071c0.49,0.021,0.894,0.212,1.159,0.53
				c0.356,0.424,0.399,1.209,0.157,2.336c-0.201,1.359-0.646,2.166-1.205,2.42c-0.778,0.488-2.116,0.403-4.035-0.297
				c-0.335-0.106-0.533-0.256-0.578-0.467c-0.067-0.191-0.067-0.426,0.021-0.638c0.225-0.446,0.624-0.575,1.183-0.403
				c1.359,0.299,2.161,0.36,2.361,0.19l0.202-0.19c0.29-0.445,0.445-0.913,0.445-1.338c0-0.127-0.067-0.254-0.225-0.317
				l-0.489-0.106h-6.041c-0.225-0.022-0.424,0.063-0.58,0.214c-0.157,0.147-0.244,0.339-0.244,0.571v3.717h7.603
				c0.446-0.065,0.85,0.084,1.181,0.382c0.336,0.359,0.446,0.828,0.291,1.381c-0.602,2.608-1.629,4.842-3.031,6.687
				c0.735,0.722,1.917,1.506,3.435,2.314c0.313,0.19,0.492,0.382,0.58,0.658c0.068,0.256,0.021,0.487-0.112,0.744
				c-0.156,0.254-0.38,0.401-0.624,0.467c-0.823,0.148-2.319-0.765-4.481-2.825l-0.959,0.894c-1.717,1.316-2.853,1.933-3.345,1.824
				c-0.246-0.085-0.425-0.21-0.558-0.401C371.243,215.741,371.154,215.935,370.999,216.082z M371.289,205.105v9.257l0.379-0.298
				c1.16-0.597,2.253-1.358,3.255-2.188c-1.451-1.932-2.542-4.207-3.188-6.772L371.289,205.105L371.289,205.105z M373.585,205.105
				c0.514,2.168,1.36,3.972,2.543,5.458c0.646-0.979,1.181-1.827,1.495-2.528c0.688-1.462,0.936-2.398,0.779-2.717
				c-0.112-0.148-0.271-0.211-0.489-0.211h-4.328V205.105L373.585,205.105z"/>
			<path fill="#2990D0" d="M388.458,199.054c-0.602,0.934-1.182,1.636-1.673,2.081c-0.245,0.189-0.49,0.298-0.69,0.274
				c-0.225,0-0.424-0.085-0.625-0.274c-0.154-0.172-0.223-0.36-0.223-0.573c0-0.234,0.113-0.447,0.358-0.639
				c0.892-0.869,1.604-1.91,2.14-3.119c0.113-0.257,0.268-0.426,0.468-0.531c0.203-0.106,0.425-0.106,0.669-0.043
				c0.225,0.106,0.379,0.233,0.489,0.426c0.091,0.147,0.066,0.467-0.066,0.85h5.128c0.225,0,0.425,0.042,0.58,0.189
				s0.223,0.34,0.223,0.574c0,0.188-0.066,0.383-0.223,0.528c-0.156,0.17-0.355,0.255-0.58,0.255h-2.431
				c0.381,0.786,0.491,1.339,0.336,1.637c-0.113,0.19-0.313,0.34-0.559,0.401c-0.224,0.064-0.444,0.043-0.646-0.041
				c-0.202-0.106-0.336-0.318-0.425-0.596c-0.29-0.807-0.512-1.272-0.646-1.401L388.458,199.054L388.458,199.054z M394.767,200.242
				l0.224-0.127v-0.211l0.045-0.127l1.762-1.996c0.534-0.849,0.893-1.316,1.071-1.359c0.199-0.086,0.421-0.086,0.646,0.022
				c0.223,0.104,0.378,0.232,0.488,0.423c0.067,0.233,0.024,0.467-0.089,0.701h5.797c0.222,0,0.424,0.063,0.58,0.213
				c0.157,0.148,0.224,0.34,0.224,0.572c0,0.191-0.067,0.385-0.224,0.531c-0.157,0.17-0.358,0.255-0.58,0.255h-3.166
				c0.247,0.784,0.291,1.337,0.156,1.611c-0.135,0.191-0.333,0.318-0.578,0.361c-0.223,0.043-0.445,0-0.647-0.105
				c-0.2-0.127-0.335-0.34-0.378-0.637l-0.401-1.23h-1.763c-0.603,0.699-1.113,1.188-1.448,1.464l-0.088,0.064l0.021,0.85h7.558
				c0.291,0,0.58,0.063,0.851,0.213c0.245,0.19,0.424,0.383,0.534,0.635c0.289,0.661,0.201,1.7-0.246,3.08
				c-0.111,0.254-0.289,0.467-0.49,0.574c-0.223,0.084-0.469,0.084-0.715,0c-0.557-0.255-0.734-0.638-0.512-1.188
				c0.269-0.681,0.356-1.104,0.291-1.338c-0.091-0.255-0.246-0.36-0.491-0.341h-15.272c-0.156-0.021-0.291,0.042-0.426,0.17
				c-0.134,0.127-0.2,0.275-0.178,0.424v1.403c0,0.296-0.09,0.51-0.268,0.701c-0.18,0.146-0.4,0.211-0.646,0.232
				c-0.27-0.021-0.471-0.104-0.624-0.256c-0.179-0.19-0.269-0.403-0.269-0.678v-2.104c-0.022-0.382,0.135-0.763,0.489-1.082
				c0.313-0.318,0.714-0.468,1.116-0.445h7.425C394.545,200.86,394.612,200.414,394.767,200.242z M402.838,215.298
				c-0.378,0.36-0.822,0.552-1.293,0.572h-11.504c-0.49,0-0.936-0.168-1.25-0.529c-0.335-0.342-0.514-0.723-0.491-1.146v-8.367
				c-0.021-0.383,0.113-0.721,0.402-0.996c0.27-0.233,0.624-0.36,1.05-0.36h11.169c0.446,0,0.848,0.147,1.16,0.445
				c0.334,0.317,0.489,0.678,0.489,1.124v1.869c0,0.383-0.134,0.701-0.424,0.937c-0.267,0.252-0.603,0.381-0.98,0.401h-11.059v1.529
				h11.594c0.469,0,0.869,0.148,1.182,0.467c0.269,0.298,0.426,0.638,0.445,1.062v1.867
				C403.308,214.617,403.15,214.998,402.838,215.298z M390.108,207.696h10.1c0.133,0,0.267-0.063,0.379-0.169
				c0.111-0.086,0.156-0.211,0.178-0.34v-0.658l-0.155-0.341c-0.112-0.106-0.247-0.169-0.4-0.169h-9.543
				c-0.157,0-0.313,0.041-0.424,0.147c-0.112,0.105-0.157,0.233-0.133,0.361L390.108,207.696L390.108,207.696z M390.108,212.323
				v1.36c0,0.128,0.043,0.253,0.133,0.359l0.399,0.148h10.324c0.111,0,0.178-0.042,0.29-0.148l0.134-0.298v-0.892
				c0-0.148-0.065-0.275-0.199-0.384c-0.113-0.106-0.225-0.17-0.381-0.147L390.108,212.323L390.108,212.323z"/>
			<path fill="#2990D0" d="M412.359,205.635h-1.673c-0.291,0-0.49-0.086-0.646-0.213c-0.157-0.147-0.248-0.359-0.248-0.614
				c0-0.211,0.091-0.402,0.248-0.574c0.155-0.147,0.354-0.232,0.646-0.232h1.673v-5.16h-1.673c-0.291,0-0.49-0.084-0.646-0.233
				c-0.157-0.148-0.248-0.34-0.248-0.594c0-0.234,0.091-0.425,0.248-0.573c0.155-0.149,0.354-0.233,0.646-0.233h5.305
				c0.269,0,0.445,0.063,0.604,0.211c0.156,0.127,0.245,0.34,0.245,0.596c0,0.232-0.089,0.425-0.245,0.571
				c-0.156,0.171-0.335,0.255-0.604,0.255h-1.737V204h1.563c0.265,0,0.465,0.064,0.601,0.211c0.155,0.15,0.246,0.361,0.246,0.596
				c0,0.233-0.091,0.425-0.246,0.595c-0.136,0.147-0.336,0.233-0.601,0.233h-1.563v5.796l1.718-0.7
				c0.289-0.127,0.513-0.169,0.734-0.108c0.247,0.086,0.425,0.214,0.535,0.447c0.11,0.232,0.156,0.488,0.11,0.701
				c-0.021,0.213-0.178,0.401-0.488,0.552c-0.581,0.298-1.384,0.617-2.408,0.935c-1.517,0.512-2.766,0.894-3.747,1.126
				c-0.267,0.063-0.512,0.042-0.734-0.064c-0.2-0.127-0.336-0.316-0.401-0.593c-0.067-0.233-0.022-0.445,0.09-0.68
				c0.11-0.213,0.313-0.36,0.603-0.426l2.098-0.574L412.359,205.635L412.359,205.635z M422.372,211.37h-4.282
				c-0.292,0-0.49-0.085-0.646-0.233c-0.157-0.149-0.224-0.341-0.224-0.596c0-0.232,0.066-0.424,0.224-0.594
				c0.156-0.127,0.354-0.212,0.646-0.212h4.282v-2.188h-3.815c-0.378-0.022-0.669-0.147-0.867-0.383
				c-0.27-0.318-0.402-0.66-0.381-0.998v-7.771c0-0.318,0.111-0.617,0.356-0.851c0.245-0.213,0.533-0.34,0.892-0.34h9.479
				c0.399-0.022,0.78,0.105,1.071,0.34c0.222,0.211,0.354,0.487,0.377,0.851v7.771c0,0.339-0.155,0.68-0.444,0.978
				c-0.291,0.256-0.647,0.403-1.003,0.403h-3.77v2.188h4.705c0.27,0,0.445,0.063,0.603,0.212c0.157,0.127,0.246,0.34,0.246,0.594
				c0,0.234-0.089,0.404-0.246,0.574c-0.156,0.17-0.333,0.255-0.603,0.255h-4.705v2.589h5.397c0.266,0,0.466,0.064,0.6,0.211
				c0.158,0.149,0.247,0.342,0.247,0.596c0,0.232-0.089,0.426-0.247,0.574c-0.134,0.169-0.334,0.253-0.6,0.253h-12.709
				c-0.291,0-0.49-0.084-0.647-0.232c-0.134-0.128-0.222-0.339-0.222-0.595c0-0.234,0.088-0.402,0.222-0.574
				c0.157-0.146,0.356-0.232,0.647-0.232h5.42v-2.588L422.372,211.37L422.372,211.37z M422.372,198.842h-2.433
				c-0.291-0.021-0.47,0.044-0.559,0.15c-0.133,0.148-0.2,0.318-0.178,0.531v1.996h3.168L422.372,198.842L422.372,198.842z
				 M422.372,203.152h-3.168v2.081c0,0.232,0.066,0.384,0.178,0.511c0.11,0.106,0.313,0.168,0.559,0.168h2.433L422.372,203.152
				L422.372,203.152z M424.264,201.517h3.323v-1.996c0-0.211-0.046-0.359-0.135-0.467c-0.112-0.149-0.313-0.214-0.559-0.214h-2.631
				L424.264,201.517L424.264,201.517z M424.264,205.912h2.632c0.245-0.021,0.424-0.084,0.558-0.19
				c0.089-0.105,0.135-0.255,0.135-0.487v-2.081h-3.323L424.264,205.912L424.264,205.912z"/>
			<path fill="#2990D0" d="M435.235,208.695c-0.336,0.021-0.604-0.043-0.78-0.193c-0.157-0.188-0.27-0.382-0.291-0.635
				c0-0.277,0.067-0.51,0.202-0.68c0.2-0.191,0.444-0.275,0.779-0.299l7.291-0.298c1.916-1.848,3.744-3.906,5.463-6.264
				c0.157-0.233,0.356-0.381,0.624-0.445c0.245-0.063,0.488-0.043,0.714,0.105c0.223,0.148,0.379,0.32,0.444,0.555
				c0.092,0.613-1.448,2.609-4.657,5.943l5.994-0.234c-0.531-0.679-1.002-1.229-1.471-1.653c-0.199-0.234-0.312-0.47-0.312-0.724
				c0-0.213,0.112-0.446,0.312-0.637c0.2-0.17,0.447-0.254,0.669-0.254c0.27,0.021,0.513,0.147,0.758,0.383
				c1.183,1.23,2.454,2.887,3.77,4.946c0.133,0.275,0.201,0.53,0.133,0.765c-0.067,0.211-0.176,0.402-0.424,0.553
				c-0.245,0.127-0.487,0.168-0.713,0.127c-0.245-0.065-0.468-0.232-0.647-0.51l-0.979-1.465l-6.557,0.381v7.177
				c0,0.297-0.09,0.529-0.266,0.721c-0.157,0.148-0.402,0.232-0.692,0.256c-0.246,0-0.469-0.085-0.67-0.234
				c-0.179-0.189-0.268-0.424-0.268-0.742v-7.113L435.235,208.695z M439.383,209.289c0.202-0.064,0.445-0.043,0.669,0.063
				c0.245,0.128,0.401,0.298,0.468,0.511c0.068,0.233,0.046,0.486-0.11,0.742l-0.068,0.104c-1.313,2.104-2.721,3.673-4.213,4.609
				c-0.291,0.189-0.559,0.254-0.76,0.189c-0.223-0.021-0.425-0.148-0.603-0.34c-0.312-0.488-0.2-0.913,0.313-1.272
				c1.47-1.063,2.743-2.443,3.723-4.099C438.958,209.523,439.137,209.352,439.383,209.289z M441.746,199.5l-5.952,0.148
				c-0.292,0-0.538-0.084-0.694-0.254c-0.154-0.147-0.242-0.381-0.242-0.658c0-0.255,0.088-0.445,0.265-0.638
				c0.157-0.17,0.402-0.254,0.693-0.254c2.496,0,5.419-0.106,8.717-0.298c3.346-0.214,5.842-0.488,7.515-0.851
				c0.313-0.041,0.558-0.021,0.758,0.106c0.18,0.129,0.313,0.318,0.382,0.573c0.065,0.255,0.021,0.487-0.091,0.7
				c-0.068,0.193-0.268,0.342-0.625,0.383c-1.627,0.383-3.834,0.66-6.6,0.808l-1.806,0.104c-0.18,0.489-1.203,1.806-3.056,3.93
				c1.138,0.722,1.738,1.23,1.807,1.466c0.067,0.231,0.021,0.443-0.135,0.678c-0.133,0.19-0.312,0.318-0.558,0.383
				c-0.244,0.065-0.488,0.023-0.779-0.168c-1.604-1.127-3.232-2.081-4.838-2.825c-0.29-0.106-0.49-0.275-0.604-0.511
				c-0.109-0.21-0.109-0.424-0.021-0.699c0.11-0.233,0.267-0.402,0.468-0.511c0.489-0.19,1.583,0.212,3.209,1.252
				C440.273,201.475,441.01,200.519,441.746,199.5z M448.546,210.052c-0.021-0.211,0.068-0.424,0.269-0.637
				c0.199-0.19,0.401-0.274,0.646-0.297c0.826,0.043,2.364,1.678,4.55,4.798c0.176,0.253,0.243,0.486,0.176,0.742
				c-0.022,0.234-0.156,0.426-0.378,0.596c-0.223,0.127-0.468,0.17-0.715,0.127c-0.245-0.063-0.466-0.19-0.669-0.444
				c-1.338-1.869-2.497-3.25-3.522-4.162C448.658,210.541,448.546,210.307,448.546,210.052z"/>
			<path fill="#2990D0" d="M459.405,207.357c-0.29,0.021-0.536-0.023-0.715-0.128c-0.18-0.127-0.289-0.317-0.356-0.553
				c-0.022-0.232,0.044-0.426,0.158-0.616c0.153-0.191,0.377-0.297,0.667-0.359h0.248c0.688-0.638,1.446-1.445,2.249-2.422
				c-0.848-0.807-1.718-1.508-2.606-2.081c-0.247-0.106-0.423-0.276-0.49-0.509c-0.065-0.191-0.046-0.404,0.068-0.615
				c0.133-0.193,0.288-0.342,0.489-0.428c0.246-0.063,0.489-0.021,0.733,0.128l0.246,0.128c0.604-0.978,1.182-2.039,1.739-3.228
				c0.157-0.233,0.335-0.383,0.58-0.446c0.2-0.063,0.423-0.021,0.645,0.086c0.201,0.127,0.357,0.298,0.426,0.487
				c0.067,0.361-0.623,1.699-2.119,4.033l1.294,1.147c0.689-0.978,1.315-1.997,1.851-3.079c0.113-0.253,0.29-0.426,0.514-0.486
				c0.201-0.086,0.399-0.086,0.646,0.021c0.225,0.085,0.382,0.232,0.47,0.425c0.09,0.234,0.067,0.445-0.067,0.723
				c-1.07,2.059-2.476,4.013-4.125,5.795l3.055-0.383c-0.313-0.911-0.424-1.443-0.356-1.592c0.068-0.191,0.223-0.34,0.47-0.445
				c0.223-0.085,0.425-0.085,0.646-0.021c0.224,0.086,0.4,0.254,0.516,0.529c0.912,2.229,1.204,3.61,0.936,4.036
				c-0.112,0.189-0.29,0.295-0.536,0.36c-0.243,0.04-0.443,0-0.646-0.108c-0.09-0.086-0.29-0.467-0.535-1.187l-1.628,0.233v8.618
				c0,0.275-0.089,0.511-0.291,0.701c-0.134,0.127-0.333,0.211-0.623,0.233c-0.245-0.022-0.444-0.085-0.624-0.212
				c-0.18-0.191-0.268-0.426-0.268-0.722v-8.386L459.405,207.357z M459.872,208.207c0.156-0.129,0.38-0.19,0.625-0.19
				c0.222,0.02,0.422,0.104,0.577,0.231c0.156,0.191,0.246,0.426,0.225,0.701l-0.399,2.442c-0.2,1.145-0.381,2.122-0.625,2.992
				c-0.067,0.275-0.223,0.468-0.425,0.596c-0.155,0.105-0.379,0.146-0.646,0.086c-0.223-0.066-0.38-0.192-0.513-0.361
				c-0.112-0.212-0.134-0.426-0.066-0.7c0.532-1.997,0.891-3.736,0.979-5.16C459.628,208.567,459.716,208.355,459.872,208.207z
				 M467.255,212.431c0.066,0.254,0.021,0.51-0.09,0.7c-0.113,0.169-0.293,0.275-0.558,0.34c-0.248,0.042-0.424,0.021-0.625-0.086
				c-0.2-0.147-0.335-0.34-0.402-0.614l-0.779-3.567c-0.067-0.255-0.043-0.487,0.066-0.679c0.135-0.191,0.313-0.299,0.537-0.34
				c0.266-0.065,0.489-0.023,0.69,0.063c0.178,0.148,0.311,0.34,0.379,0.617L467.255,212.431z M471.802,206.316v1.485
				c-0.134,3.271-1.337,5.797-3.567,7.559c-0.668,0.488-1.182,0.7-1.493,0.615c-0.247-0.063-0.426-0.189-0.557-0.4
				c-0.113-0.234-0.157-0.426-0.113-0.661c0.067-0.232,0.223-0.423,0.489-0.55l0.625-0.426c1.871-1.337,2.809-3.396,2.809-6.137
				v-1.313l-1.583,0.125c-0.335,0.021-0.603-0.04-0.78-0.168c-0.2-0.148-0.311-0.36-0.334-0.617c-0.022-0.277,0.046-0.487,0.2-0.678
				c0.201-0.192,0.445-0.318,0.759-0.361h0.445c0.914-1.442,1.738-3.017,2.498-4.691h-3.724c-0.268,0-0.47-0.085-0.625-0.233
				c-0.153-0.148-0.243-0.361-0.243-0.595c0-0.234,0.089-0.426,0.243-0.596c0.156-0.147,0.357-0.232,0.625-0.232h4.303
				c0-1.147,0.089-1.825,0.224-1.995c0.178-0.171,0.423-0.256,0.714-0.256c0.247,0,0.469,0.086,0.646,0.256
				c0.201,0.17,0.313,0.381,0.313,0.656v1.338h4.86c0.267,0,0.468,0.063,0.625,0.213c0.134,0.147,0.224,0.361,0.224,0.615
				c0,0.213-0.09,0.401-0.224,0.573c-0.158,0.168-0.358,0.255-0.625,0.255h-5.373c-0.489,1.209-1.293,2.76-2.362,4.544l5.795-0.385
				l-0.937-1.739c-0.133-0.233-0.18-0.469-0.133-0.679c0.043-0.213,0.155-0.383,0.4-0.512c0.2-0.147,0.424-0.188,0.646-0.127
				c0.668,0.171,1.583,1.827,2.696,4.904c0.09,0.275,0.09,0.488,0,0.681c-0.109,0.212-0.29,0.36-0.532,0.445
				c-0.247,0.063-0.448,0.063-0.646-0.022c-0.179-0.085-0.469-0.574-0.805-1.399l-1.494,0.147v7.496
				c0,0.148,0.045,0.275,0.135,0.359l0.401,0.148c0.489,0,0.848-0.042,1.024-0.128c0.135-0.104,0.268-0.679,0.313-1.676
				c0.021-0.256,0.111-0.447,0.267-0.636c0.158-0.149,0.381-0.234,0.624-0.234c0.245,0.021,0.445,0.106,0.604,0.253
				c0.157,0.168,0.246,0.382,0.225,0.68c-0.09,1.612-0.337,2.634-0.646,2.974c-0.225,0.233-0.558,0.383-1.027,0.401h-2.074
				c-0.512-0.021-0.937-0.189-1.247-0.485c-0.267-0.299-0.399-0.66-0.399-1.041v-7.94L471.802,206.316z"/>
		</g>
	</g>
</g>
<g>
	<path fill="#2992D0" d="M38.258,5.756c-0.822-0.144-1.629-0.01-2.325,0.33l1.89,21.584l0.146,1.671L41.35,10.17
		C41.712,8.097,40.331,6.122,38.258,5.756"/>
	<path fill="#2992D0" d="M34.586,23.209l0.972,2.671L33.751,5.245C33.569,3.15,31.722,1.6,29.627,1.783
		c-0.957,0.084-1.796,0.521-2.413,1.167L34.586,23.209z"/>
	<path fill="#2992D0" d="M22.518,18.465c3.839,0.826,7.339,2.747,10.095,5.461l-7.794-21.42c-0.722-1.976-2.908-2.995-4.884-2.275
		s-2.996,2.905-2.276,4.882L22.518,18.465z"/>
	<path fill="#FFFFFF" d="M32.982,38.084c0,8.351-6.771,15.12-15.12,15.12c-8.352,0-15.12-6.77-15.12-15.12
		c0-8.352,6.769-15.12,15.12-15.12C26.212,22.964,32.982,29.732,32.982,38.084"/>
	<path fill="#74BDE9" d="M35.858,33.266c-2.21-7.578-9.177-13.12-17.457-13.168c4.548,1.352,8.293,4.235,10.456,7.966
		c1.283,2.211,2.022,4.712,2.022,7.37c0,7.171-5.277,13.24-12.58,15.369c1.799,0.521,3.721,0.817,5.721,0.817
		c3.131,0,6.079-0.698,8.652-1.924c2.452-3.113,3.927-7.031,3.927-11.301C36.599,36.612,36.331,34.894,35.858,33.266"/>
	<path fill="#3FB98C" d="M24.021,51.62c-2.001,0-3.923-0.296-5.722-0.817c-7.303-2.129-12.578-8.198-12.578-15.369
		c0,0.16,0.015,0.317,0.021,0.473c0.049-1.636,0.716-3.112,1.772-4.213c-0.597,0.569-1.156,1.18-1.654,1.823
		c-2.015,2.6-3.194,5.745-3.194,9.134c0,2.657,0.735,5.156,2.018,7.37c0.361,0.618,0.755,1.218,1.199,1.789
		c3.262,3.02,7.616,4.884,12.416,4.884c5.836,0,11.023-2.74,14.373-6.997C30.099,50.922,27.151,51.62,24.021,51.62"/>
	<path fill="#2992D0" d="M28.857,28.064c-2.163-3.731-5.908-6.615-10.457-7.965c-0.032,0-0.067-0.004-0.101-0.004
		c-0.032,0-0.068,0.004-0.102,0.004C8.138,20.153,0,28.321,0,38.396c0,4.269,1.475,8.187,3.927,11.301
		c0.594,0.754,1.251,1.458,1.957,2.112c-0.444-0.571-0.838-1.171-1.198-1.789c-1.283-2.214-2.019-4.713-2.019-7.37
		c0-3.389,1.18-6.534,3.194-9.134c0.645-0.833,1.379-1.61,2.186-2.321c0.043-0.033,0.098-0.078,0.172-0.135
		c1.075-0.832,2.424-1.329,3.888-1.329c3.01,0,5.525,2.094,6.193,4.899c0.664-2.806,3.183-4.899,6.193-4.899
		c3.452,0,6.257,2.75,6.365,6.175c0.004-0.155,0.021-0.313,0.021-0.473C30.88,32.775,30.14,30.275,28.857,28.064"/>
	<path fill="#2992D0" d="M142.418,40.094L142.418,40.094v-0.002v-0.002c0-0.195-0.005-0.39-0.016-0.586v-0.011
		c-0.01-0.196-0.022-0.39-0.043-0.582v-0.004c-0.594-5.955-5.621-10.605-11.734-10.605c-6.511,0-11.79,5.279-11.79,11.792
		c0,6.511,5.279,11.792,11.79,11.792c2.826,0,5.422-0.994,7.453-2.651v2.651l2.145-0.624c1.514-0.439,2.243-1.446,2.191-3.019
		C142.414,48.244,142.418,40.132,142.418,40.094 M130.625,46.98c-3.794,0-6.885-3.089-6.885-6.886c0-3.796,3.091-6.885,6.885-6.885
		c3.8,0,6.89,3.089,6.89,6.885C137.514,43.891,134.425,46.98,130.625,46.98"/>
	<path fill="#2992D0" d="M61.798,25.541c-0.437,0.438-0.66,0.948-0.66,1.523v9.243h-10.94v-9.243c0-0.575-0.221-1.085-0.661-1.523
		c-0.424-0.427-0.961-0.642-1.598-0.642h-2.422v26.987h2.422c0.637,0,1.174-0.217,1.598-0.641c0.44-0.439,0.661-0.952,0.661-1.526
		v-9.225h10.94v9.225c0,0.574,0.224,1.087,0.66,1.526c0.425,0.424,0.962,0.641,1.6,0.641h2.421V24.9h-2.421
		C62.76,24.9,62.222,25.114,61.798,25.541"/>
	<path fill="#2992D0" d="M79.666,33.21c3.796,0,6.888,3.089,6.888,6.885c0,3.797-3.092,6.886-6.888,6.886s-6.886-3.089-6.886-6.886
		C72.78,36.299,75.87,33.21,79.666,33.21 M79.666,28.302c-6.514,0-11.792,5.279-11.792,11.792c0,6.511,5.278,11.792,11.792,11.792
		s11.791-5.281,11.791-11.792C91.457,33.582,86.179,28.302,79.666,28.302"/>
	<path fill="#3FB98C" d="M113.969,41.469c-0.949,0-1.763,0.563-2.139,1.37c-0.022,0.054-0.044,0.109-0.068,0.163
		c-1.128,2.497-3.647,4.168-6.452,4.168c-3.903,0-7.081-3.174-7.081-7.077c0-3.902,3.178-7.078,7.081-7.078
		c2.52,0,4.777,1.35,6.08,3.448c0.297,0.48,1.503,1.888,3.248,0.886c1.579-0.908,1.147-2.72,0.854-3.22
		c-2.107-3.581-5.948-5.83-10.182-5.83c-6.505,0-11.794,5.291-11.794,11.794c0,6.504,5.289,11.794,11.794,11.794
		c4.709,0,8.929-2.825,10.79-7.041c0.03-0.063,0.057-0.128,0.081-0.194c0.095-0.255,0.154-0.528,0.154-0.816
		C116.336,42.528,115.276,41.469,113.969,41.469"/>
</g>
</svg>
