<?xml version="1.0" encoding="utf-8"?>
<!-- Generator: Adobe Illustrator 16.0.3, SVG Export Plug-In . SVG Version: 6.00 Build 0)  -->
<!DOCTYPE svg PUBLIC "-//W3C//DTD SVG 1.1//EN" "http://www.w3.org/Graphics/SVG/1.1/DTD/svg11.dtd">
<svg version="1.1" id="圖層_1" xmlns="http://www.w3.org/2000/svg" xmlns:xlink="http://www.w3.org/1999/xlink" x="0px" y="0px"
	 width="200px" height="200px" viewBox="0 0 200 200" enable-background="new 0 0 200 200" xml:space="preserve">
<g>
	<g>
		<ellipse fill="#FFD2A1" cx="80.534" cy="55.129" rx="6.131" ry="9.149"/>
		<g>
			<path fill="#6D4C41" d="M92.868,56.089c0,23.72-17.249,42.947-38.527,42.947c-21.279,0-38.528-19.228-38.528-42.947
				c0-23.719,8.683-42.947,38.528-42.947C87.317,13.142,92.868,32.37,92.868,56.089z"/>
			<rect x="42.823" y="96.132" fill-rule="evenodd" clip-rule="evenodd" fill="#F0B271" width="20.568" height="11.465"/>
			<ellipse fill="#FFD2A1" cx="54.341" cy="59.425" rx="32.977" ry="39.611"/>
			<path fill="#FDBC79" d="M54.341,99.036c18.213,0,32.977-17.736,32.977-39.611c0-21.879-14.763-39.615-32.977-39.615V99.036z"/>
			<ellipse fill="#FDBC79" cx="90.285" cy="61.459" rx="5.541" ry="8.27"/>
			<path fill-rule="evenodd" clip-rule="evenodd" fill="#FDBC79" d="M54.62,19.81L44.434,75.97L54.62,76.86v22.176
				c0,0,32.885-43.166,32.696-44.709C87.128,52.783,54.62,19.81,54.62,19.81z"/>
			<path fill="#6D4C41" d="M87.317,63.694c5.55-26.982-14.763-47.297-32.977-47.297c-18.213,0-32.977,17.736-32.977,39.612v5.449
				l10.542-25.171l25.086,19.437L87.317,63.694z"/>
			<ellipse fill="#FFD2A1" cx="18.955" cy="61.459" rx="5.541" ry="8.27"/>
			<circle fill-rule="evenodd" clip-rule="evenodd" fill="#6D4C41" cx="39.302" cy="62.313" r="3.469"/>
			<circle fill-rule="evenodd" clip-rule="evenodd" fill="#6D4C41" cx="70.622" cy="62.313" r="3.47"/>
			<path fill-rule="evenodd" clip-rule="evenodd" fill="#D25C33" d="M41.365,82.856c0,0,4.042,5.643,10.779,5.643
				c6.735,0,10.777-5.643,10.777-5.643H41.365z"/>
			<g>
				<rect x="40.264" y="105.708" fill-rule="evenodd" clip-rule="evenodd" fill="#DCECF4" width="25.683" height="10.768"/>
			</g>
			<g>
				<path fill-rule="evenodd" clip-rule="evenodd" fill="#DCECF4" d="M87.615,178.116c0.157,5.497-4.215,9.996-9.715,9.996H28.313
					c-5.5,0-9.872-4.499-9.715-9.996l0.617-21.678c0.157-5.497,0.413-14.495,0.569-19.992l0.409-14.376
					c0.157-5.498,4.785-9.996,10.285-9.996h45.257c5.5,0,10.128,4.498,10.285,9.996L87.615,178.116z"/>
			</g>
			<g>
				<path fill-rule="evenodd" clip-rule="evenodd" fill="#DCECF4" d="M92.651,161.094c2.979,4.623,8.789,6.232,12.91,3.576
					s5.056-8.611,2.076-13.234l-20.965-32.526c-2.979-4.623-8.789-6.232-12.91-3.577s-5.054,8.611-2.075,13.234L92.651,161.094z"/>
			</g>
			<g>
				<path fill-rule="evenodd" clip-rule="evenodd" fill="#DCECF4" d="M19.729,160.301c-2.392,4.953-7.961,7.261-12.376,5.129
					s-6.071-7.928-3.679-12.881l16.83-34.847c2.392-4.952,7.96-7.261,12.375-5.13c4.415,2.132,6.069,7.928,3.678,12.881
					L19.729,160.301z"/>
			</g>
			<g>
				<path fill-rule="evenodd" clip-rule="evenodd" fill="#DCECF4" d="M31.098,165.75c4.352,3.363,5.46,9.289,2.462,13.17
					s-9.011,4.305-13.363,0.941L5.076,168.174c-4.352-3.363-5.46-9.289-2.462-13.168c2.997-3.879,9.011-4.303,13.363-0.939
					L31.098,165.75z"/>
			</g>
			<g>
				<path fill-rule="evenodd" clip-rule="evenodd" fill="#DCECF4" d="M99.257,149.534c-4.955,2.388-7.271,7.956-5.147,12.374
					c2.124,4.42,7.916,6.082,12.872,3.696l29.479-14.196c4.955-2.387,7.271-7.954,5.148-12.373
					c-2.124-4.419-5.644-7.178-7.822-6.131c-2.178,1.047-8.014,3.855-12.969,6.243L99.257,149.534z"/>
			</g>
			<g>
				<path fill="none" stroke="#6D4C41" stroke-width="2" stroke-miterlimit="10" d="M44.818,67.668c0,2.199-1.8,4-4,4H25.69
					c-2.2,0-4-1.801-4-4v-7.943c0-2.2,1.8-4,4-4h15.128c2.2,0,4,1.8,4,4V67.668z"/>
			</g>
			<g>
				<path fill="none" stroke="#6D4C41" stroke-width="2" stroke-miterlimit="10" d="M80.12,67.668c0,2.199-1.8,4-4,4H60.991
					c-2.2,0-4-1.801-4-4v-7.943c0-2.2,1.8-4,4-4H76.12c2.2,0,4,1.8,4,4V67.668z"/>
			</g>
			<line fill="none" stroke="#6D4C41" stroke-width="2" stroke-miterlimit="10" x1="44.434" y1="61.459" x2="56.991" y2="61.459"/>
			<polygon fill-rule="evenodd" clip-rule="evenodd" fill="#FFFFFF" points="33.255,112.544 54.341,151.593 74.96,112.544 			"/>
			<polygon fill-rule="evenodd" clip-rule="evenodd" fill="#DCECF4" points="137.747,131.001 147.99,145.447 134.64,152.316 
				132.195,133.71 			"/>
			<path fill="#FFD2A1" d="M139.433,133.379c0,0,5.261-5.075,9.072-5.079c7.845-0.011,4.839,4.223,16.225,4.223
				c5.039,0,15.824-6.14,17.684-6.562c0,0,2.794,2.8-1.41,4.677l-8.478,4.192l-9.571,5.149l-13.201,1.679l-3.764,0.967
				L139.433,133.379z"/>
			<polygon fill-rule="evenodd" clip-rule="evenodd" fill="#DCECF4" points="6.498,146.702 1.901,156.22 5.991,160.148 			"/>
			<path fill-rule="evenodd" clip-rule="evenodd" fill="#C7E2ED" d="M17.175,162.464c0.232,6.609,1.408,16.148,1.408,16.148
				l1.532-37.198C20.115,141.414,16.943,155.854,17.175,162.464z"/>
		</g>
		<g>
			<g>
				<path fill="#2992D0" d="M188.532,10.419c-1.292-0.226-2.559-0.017-3.651,0.519l2.967,33.881l0.229,2.623l5.309-30.094
					C193.953,14.095,191.785,10.995,188.532,10.419z"/>
				<path fill="#2992D0" d="M182.768,37.814l1.526,4.193l-2.836-32.39c-0.287-3.289-3.185-5.722-6.475-5.435
					c-1.503,0.133-2.818,0.818-3.787,1.831L182.768,37.814z"/>
				<path fill="#2992D0" d="M163.825,30.368c6.026,1.296,11.52,4.312,15.846,8.573L167.437,5.318
					c-1.133-3.101-4.563-4.701-7.666-3.571c-3.101,1.128-4.701,4.559-3.573,7.663L163.825,30.368z"/>
				<circle fill="#FFFFFF" cx="156.516" cy="61.164" r="23.734"/>
				<path fill="#74BDE9" d="M184.765,53.604c-3.469-11.895-14.403-20.596-27.402-20.672c7.14,2.121,13.018,6.647,16.414,12.504
					c2.014,3.473,3.174,7.397,3.174,11.568c0,11.257-8.283,20.783-19.746,24.125c2.824,0.818,5.84,1.283,8.98,1.283
					c4.914,0,9.541-1.098,13.58-3.02c3.849-4.887,6.165-11.037,6.165-17.738C185.93,58.854,185.507,56.159,184.765,53.604z"/>
				<path fill="#3FB98C" d="M166.185,82.412c-3.141,0-6.156-0.465-8.98-1.283c-11.465-3.342-19.744-12.868-19.744-24.125
					c0,0.252,0.023,0.498,0.033,0.743c0.078-2.569,1.123-4.887,2.783-6.614c-0.938,0.895-1.816,1.853-2.598,2.862
					c-3.162,4.08-5.014,9.019-5.014,14.338c0,4.171,1.154,8.093,3.168,11.568c0.565,0.971,1.184,1.911,1.881,2.808
					c5.121,4.74,11.956,7.665,19.49,7.665c9.16,0,17.303-4.301,22.561-10.981C175.726,81.314,171.099,82.412,166.185,82.412z"/>
				<path fill="#2992D0" d="M173.776,45.436c-3.396-5.856-9.274-10.383-16.414-12.504c-0.051,0-0.106-0.005-0.158-0.005
					c-0.051,0-0.107,0.005-0.16,0.005c-15.789,0.087-28.564,12.908-28.564,28.723c0,6.701,2.313,12.852,6.162,17.738
					c0.932,1.185,1.965,2.29,3.072,3.316c-0.697-0.896-1.315-1.837-1.881-2.808c-2.014-3.476-3.168-7.397-3.168-11.568
					c0-5.319,1.852-10.258,5.014-14.338c1.012-1.308,2.166-2.528,3.431-3.644c0.067-0.052,0.153-0.123,0.271-0.212
					c1.688-1.307,3.804-2.087,6.102-2.087c4.726,0,8.674,3.286,9.723,7.691c1.042-4.405,4.995-7.691,9.721-7.691
					c5.42,0,9.822,4.318,9.992,9.694c0.006-0.245,0.033-0.491,0.033-0.743C176.95,52.833,175.79,48.908,173.776,45.436z"/>
			</g>
			<g>
				<path fill="#2992D0" d="M199,107.051L199,107.051v-0.002c0,0,0,0,0-0.002c0-0.152-0.003-0.306-0.012-0.46
					c0-0.001,0-0.007,0-0.008c-0.009-0.155-0.019-0.307-0.034-0.455c0-0.003,0-0.006,0-0.006c-0.466-4.673-4.411-8.323-9.208-8.323
					c-5.11,0-9.253,4.144-9.253,9.256c0,5.109,4.143,9.254,9.253,9.254c2.217,0,4.255-0.78,5.849-2.082v2.082l1.684-0.491
					c1.188-0.344,1.76-1.135,1.719-2.368C198.997,113.445,199,107.081,199,107.051z M189.746,112.453
					c-2.978,0-5.403-2.424-5.403-5.402s2.426-5.402,5.403-5.402c2.98,0,5.405,2.424,5.405,5.402S192.727,112.453,189.746,112.453z"
					/>
				<path fill="#2992D0" d="M135.731,95.629c-0.342,0.344-0.519,0.743-0.519,1.195v7.254h-8.585v-7.254
					c0-0.452-0.174-0.852-0.519-1.195c-0.332-0.336-0.755-0.503-1.254-0.503h-1.901v21.179h1.901c0.499,0,0.922-0.171,1.254-0.504
					c0.345-0.344,0.519-0.746,0.519-1.197v-7.238h8.585v7.238c0,0.451,0.177,0.854,0.519,1.197c0.334,0.333,0.756,0.504,1.255,0.504
					h1.899V95.126h-1.899C136.487,95.126,136.065,95.293,135.731,95.629z"/>
				<path fill="#2992D0" d="M149.754,101.648c2.978,0,5.405,2.424,5.405,5.402s-2.428,5.402-5.405,5.402
					c-2.979,0-5.403-2.424-5.403-5.402S146.774,101.648,149.754,101.648 M149.754,97.795c-5.111,0-9.255,4.144-9.255,9.256
					c0,5.109,4.144,9.254,9.255,9.254c5.112,0,9.253-4.145,9.253-9.254C159.007,101.938,154.866,97.795,149.754,97.795
					L149.754,97.795z"/>
				<path fill="#3FB98C" d="M176.675,108.128c-0.745,0-1.383,0.442-1.678,1.076c-0.019,0.042-0.035,0.086-0.055,0.128
					c-0.885,1.958-2.863,3.271-5.063,3.271c-3.063,0-5.556-2.49-5.556-5.554c0-3.063,2.492-5.554,5.556-5.554
					c1.978,0,3.749,1.06,4.772,2.704c0.232,0.378,1.179,1.482,2.549,0.695c1.238-0.712,0.9-2.134,0.67-2.527
					c-1.655-2.809-4.669-4.574-7.991-4.574c-5.104,0-9.255,4.152-9.255,9.256s4.15,9.256,9.255,9.256
					c3.696,0,7.007-2.219,8.47-5.525c0.022-0.051,0.043-0.102,0.063-0.152c0.074-0.201,0.121-0.417,0.121-0.642
					C178.532,108.96,177.7,108.128,176.675,108.128z"/>
			</g>
		</g>
	</g>
	<rect x="-2.837" y="4.627" fill="none" width="200" height="200"/>
</g>
</svg>
