<?xml version="1.0" encoding="utf-8"?>
<!-- Generator: Adobe Illustrator 16.0.3, SVG Export Plug-In . SVG Version: 6.00 Build 0)  -->
<!DOCTYPE svg PUBLIC "-//W3C//DTD SVG 1.1//EN" "http://www.w3.org/Graphics/SVG/1.1/DTD/svg11.dtd">
<svg version="1.1" id="圖層_1" xmlns="http://www.w3.org/2000/svg" xmlns:xlink="http://www.w3.org/1999/xlink" x="0px" y="0px"
	 width="120px" height="120px" viewBox="0 0 120 120" enable-background="new 0 0 120 120" xml:space="preserve">
<g>
	<g>
		
			<polygon fill-rule="evenodd" clip-rule="evenodd" fill="#FFFFFF" stroke="#76B9E0" stroke-width="3" stroke-linecap="round" stroke-linejoin="round" stroke-miterlimit="10" points="
			73.35,65.514 68.418,70.34 23.074,70.34 23.074,16.685 78.176,16.685 78.176,60.794 		"/>
		<rect x="23.074" y="16.753" fill-rule="evenodd" clip-rule="evenodd" fill="#76B9E0" width="55.102" height="8.982"/>
		
			<polyline fill-rule="evenodd" clip-rule="evenodd" fill="none" stroke="#7099CC" stroke-width="3" stroke-linecap="round" stroke-linejoin="round" stroke-miterlimit="10" points="
			65.723,67.719 65.723,58.812 74.974,58.812 		"/>
		
			<text transform="matrix(1 0 0 1 43.1851 57.1587)" display="none" opacity="0.5" fill="#7099CC" font-family="'Arial-BoldMT'" font-size="27.1624">1</text>
	</g>
	<g>
		
			<polygon fill-rule="evenodd" clip-rule="evenodd" fill="#FFFFFF" stroke="#76B9E0" stroke-width="3" stroke-linecap="round" stroke-linejoin="round" stroke-miterlimit="10" points="
			92.099,98.488 87.168,103.314 41.823,103.314 41.823,49.66 96.926,49.66 96.926,93.77 		"/>
		<rect x="41.823" y="49.728" fill-rule="evenodd" clip-rule="evenodd" fill="#76B9E0" width="55.103" height="8.982"/>
		
			<polyline fill-rule="evenodd" clip-rule="evenodd" fill="none" stroke="#76B9E0" stroke-width="3" stroke-linecap="round" stroke-linejoin="round" stroke-miterlimit="10" points="
			84.471,101.693 84.471,91.787 94.723,91.787 		"/>
		
			<text transform="matrix(1 0 0 1 61.9346 90.1328)" display="none" opacity="0.5" fill="#7099CC" font-family="'Arial-BoldMT'" font-size="27.1624">1</text>
	</g>
</g>
</svg>
