<?xml version="1.0" encoding="utf-8"?>
<!-- Generator: Adobe Illustrator 16.0.3, SVG Export Plug-In . SVG Version: 6.00 Build 0)  -->
<!DOCTYPE svg PUBLIC "-//W3C//DTD SVG 1.1//EN" "http://www.w3.org/Graphics/SVG/1.1/DTD/svg11.dtd">
<svg version="1.1" id="圖層_1" xmlns="http://www.w3.org/2000/svg" xmlns:xlink="http://www.w3.org/1999/xlink" x="0px" y="0px"
	 width="220px" height="220px" viewBox="0 0 220 220" enable-background="new 0 0 220 220" xml:space="preserve">
<g display="none">
	<g display="inline">
		<g>
			
				<image overflow="visible" opacity="0.19" width="184" height="184" xlink:href="29F232A.png"  transform="matrix(1 0 0 1 18.0518 22.5771)">
			</image>
			<g>
				<circle fill="#FFFFFF" cx="108.039" cy="112.682" r="71.144"/>
				<circle fill="none" stroke="#75E088" stroke-width="10" stroke-miterlimit="10" cx="108.039" cy="112.682" r="71.144"/>
			</g>
		</g>
		<g>
			<path fill="#75E088" d="M63.727,176.801c-0.931-5.421,2.5-8.221,7.624-6.222l24.647,9.612c5.124,1.999,5.645,6.235,1.157,9.415
				L77.474,203.55c-4.488,3.18-8.921,1.346-9.853-4.074L63.727,176.801z"/>
		</g>
	</g>
	<g display="inline">
		<g>
			<path fill="#75D188" d="M141.945,108.378c0,0,1.286-2.482-0.25-5.693c-1.923-4.028-9.472-4.145-13.362-4.145l-10.659-0.392
				c2.375-4.014,5.351-16.567-0.418-19.452c-1.361-0.672-3.517-1.096-4.759-0.22c-1.267,0.896-1.871,1.727-2.478,4.521
				c0,0.075-1.74,9.45-5.317,11.996c-5.551,3.95-8.95,8.261-10.025,9.091c-2.385,1.852-4.312,4.581-4.312,4.581v25.999
				c0,0,26.042,7.75,42.987,2.375c3.098-0.982,3.25-5.125,1.914-6.731c4.804-2.542,4.915-8.884,2.216-9.854
				c4.817-2.845,1.672-8.482,1.672-8.482S141.083,111.087,141.945,108.378z"/>
			<g>
				<path fill="#75D188" d="M88.926,130.997c0,1.65-1.35,3-3,3h-7.423c-1.65,0-3-1.35-3-3v-19.685c0-1.65,1.35-3,3-3h7.423
					c1.65,0,3,1.35,3,3V130.997z"/>
			</g>
			<rect x="78.437" y="108.313" fill="#75D188" width="8.489" height="25.685"/>
		</g>
	</g>
</g>
<g>
	<g>
		<g>
			
				<image overflow="visible" opacity="0.25" width="165" height="189" xlink:href="29F232E.png"  transform="matrix(1 0 0 1 28.3701 31.5762)">
			</image>
			<g>
				<g>
					<g>
						<circle fill="#FFFFFF" cx="108.963" cy="112.7" r="71.143"/>
						<path fill="#2ED298" d="M179.879,84.977c-11.814-30.219-41.523-49.662-73.927-48.379c-8.452,0.334-16.767,2.08-24.714,5.186
							c-39.103,15.289-58.479,59.539-43.191,98.641c9.079,23.227,28.732,40.072,52.05,46.051c0.206,0.666,0.509,1.361,0.942,2.078
							l11.883,19.699c2.841,4.711,7.637,4.805,10.66,0.209l13.252-20.152c0.413-0.625,0.722-1.236,0.95-1.822
							c3.01-0.771,5.982-1.727,8.903-2.869c18.942-7.406,33.867-21.744,42.025-40.375
							C186.871,124.611,187.285,103.918,179.879,84.977z"/>
					</g>
				</g>
			</g>
		</g>
		<path fill="#FFFFFF" d="M169.553,139.232c-7.087,16.184-20.052,28.639-36.506,35.07c-6.909,2.701-14.131,4.219-21.47,4.508
			c-28.146,1.115-53.954-15.773-64.217-42.025c-13.279-33.969,3.552-72.408,37.52-85.688c6.908-2.701,14.131-4.217,21.468-4.508
			c28.147-1.115,53.955,15.773,64.218,42.027C176.999,105.074,176.639,123.047,169.553,139.232z"/>
	</g>
	<g>
		<g>
			<path fill="#2ED298" d="M141.951,109.379c0,0,1.286-2.482-0.25-5.693c-1.923-4.028-9.472-4.145-13.362-4.145l-10.659-0.392
				c2.375-4.014,5.351-16.567-0.418-19.452c-1.361-0.672-3.517-1.096-4.759-0.22c-1.267,0.896-1.871,1.727-2.478,4.521
				c0,0.075-1.74,9.45-5.317,11.996c-5.551,3.95-8.95,8.261-10.025,9.091c-2.385,1.852-4.312,4.581-4.312,4.581v25.999
				c0,0,26.042,7.75,42.987,2.375c3.098-0.982,3.25-5.125,1.914-6.731c4.804-2.542,4.915-8.884,2.216-9.854
				c4.817-2.845,1.672-8.482,1.672-8.482S141.089,112.088,141.951,109.379z"/>
			<g>
				<path fill="#2ED298" d="M88.932,131.998c0,1.65-1.35,3-3,3h-7.423c-1.65,0-3-1.35-3-3v-19.685c0-1.65,1.35-3,3-3h7.423
					c1.65,0,3,1.35,3,3V131.998z"/>
			</g>
			<rect x="78.443" y="109.313" fill="#2ED298" width="8.489" height="25.685"/>
		</g>
	</g>
</g>
</svg>
