<?xml version="1.0" encoding="utf-8"?>
<!-- Generator: Adobe Illustrator 16.0.3, SVG Export Plug-In . SVG Version: 6.00 Build 0)  -->
<!DOCTYPE svg PUBLIC "-//W3C//DTD SVG 1.1//EN" "http://www.w3.org/Graphics/SVG/1.1/DTD/svg11.dtd">
<svg version="1.1" id="圖層_1" xmlns="http://www.w3.org/2000/svg" xmlns:xlink="http://www.w3.org/1999/xlink" x="0px" y="0px"
	 width="220px" height="220px" viewBox="0 0 220 220" enable-background="new 0 0 220 220" xml:space="preserve">
<g display="none">
	<g display="inline">
		<g>
			
				<image overflow="visible" opacity="0.19" width="183" height="184" xlink:href="BF0E73CF.png"  transform="matrix(1 0 0 1 19.5117 21.3232)">
			</image>
			<g>
				<path fill="#FFFFFF" d="M82.742,45.31c36.536-14.457,77.873,3.438,92.331,39.973c14.458,36.537-3.44,77.873-39.975,92.332
					c-36.535,14.455-77.874-3.441-92.33-39.975C28.312,101.103,46.208,59.767,82.742,45.31z"/>
				<path fill="none" stroke="#75E088" stroke-width="10" stroke-miterlimit="10" d="M82.742,45.31
					c36.536-14.457,77.873,3.438,92.331,39.973c14.458,36.537-3.44,77.873-39.975,92.332c-36.535,14.455-77.874-3.441-92.33-39.975
					C28.312,101.103,46.208,59.767,82.742,45.31z"/>
			</g>
		</g>
		<g>
			<path fill="#75E088" d="M184.849,129.071c-4.698,2.859-8.564,0.699-8.592-4.801l-0.131-26.453
				c-0.027-5.5,3.721-7.543,8.328-4.541l20.208,13.17c4.607,3.004,4.534,7.801-0.164,10.662L184.849,129.071z"/>
		</g>
	</g>
	<g display="inline">
		<g>
			<g>
				<path fill="#75D188" d="M142.947,82.31H90.529c-0.715,0-1.297,0.578-1.297,1.299v36.175c0,0.721,0.582,1.304,1.297,1.304h19.713
					v3.114c0,0.042,0.011,0.085,0.011,0.133h-2.83c-0.652,0-1.196,0.533-1.196,1.19c0,0.659,0.544,1.191,1.196,1.191h19.284
					c1.697,0,2.166-1.833,1.115-2.833c-0.469-0.445-2.667-2.796-2.667-2.796h17.798c0.716,0,1.303-0.583,1.303-1.304V83.608
					C144.25,82.888,143.669,82.31,142.947,82.31L142.947,82.31z M138.271,112.731c0,0.648-0.526,1.177-1.173,1.177H96.381
					c-0.646,0-1.17-0.528-1.17-1.177V87.947c0-0.646,0.524-1.174,1.17-1.174h40.717c0.646,0,1.173,0.528,1.173,1.174V112.731z
					 M140.57,114.109"/>
			</g>
			<g>
				<path fill="#75D188" d="M116.058,134.122l-4.344-3.345c0.062-0.269,0.099-0.549,0.099-0.835v-25.049
					c0-1.926-1.566-3.496-3.497-3.496H69.665c-1.93,0-3.496,1.57-3.496,3.496v25.049c0,0.286,0.036,0.566,0.107,0.835l-4.357,3.345
					c-0.591,0.454-0.824,1.239-0.584,1.948c0.243,0.705,0.906,1.185,1.654,1.185h52.003c0.75,0,1.417-0.479,1.657-1.185
					C116.893,135.361,116.653,134.576,116.058,134.122L116.058,134.122z M71.006,106.233"/>
			</g>
			<path fill="#FFFFFF" d="M106.976,128.606v-20.719c0-1.064-0.863-1.928-1.927-1.928H72.933c-1.064,0-1.927,0.863-1.927,1.928
				v20.719H106.976z"/>
			<g>
				<g>
					<path fill="#75D188" d="M151.313,109.763h-15.869c-0.675,0-1.219,0.543-1.219,1.223v28.113c0,0.672,0.55,1.22,1.219,1.22
						h15.869c0.676,0,1.224-0.544,1.224-1.22v-28.11c0-0.674-1.548-1.226-2.224-1.226H151.313z M143.307,138.256
						c-0.709,0-1.278-0.57-1.278-1.282c0-0.707,0.569-1.276,1.278-1.276c0.708,0,1.275,0.569,1.275,1.276
						C144.582,137.686,144.008,138.256,143.307,138.256L143.307,138.256z M148.588,132.953c0,0.316-0.254,0.57-0.568,0.57h-9.127
						c-0.316,0-0.57-0.254-0.57-0.57v-19.03c0-0.314,0.254-0.571,0.57-0.571h9.127c0.314,0,0.568,0.257,0.568,0.571V132.953z
						 M150.013,134.722"/>
				</g>
				<path fill="#FFFFFF" d="M148.689,132.953c0,0.316-0.255,0.57-0.568,0.57h-9.48c-0.314,0-0.57-0.254-0.57-0.57v-19.03
					c0-0.314,0.256-0.571,0.57-0.571h9.48c0.313,0,0.568,0.257,0.568,0.571V132.953z"/>
			</g>
		</g>
	</g>
</g>
<g>
	<g>
		
			<image overflow="visible" opacity="0.25" width="188" height="165" xlink:href="BF0E73CB.png"  transform="matrix(1 0 0 1 29.2305 32.4707)">
		</image>
		<g>
			<g>
				<g>
					<circle fill="#FFFFFF" cx="109.923" cy="113.307" r="71.143"/>
					<path fill="#2ED298" d="M76.792,44.749c-29.215,14.117-46.299,45.242-42.512,77.449c0.988,8.401,3.371,16.556,7.083,24.238
						c18.27,37.802,63.887,53.696,101.689,35.427c22.454-10.85,37.727-31.748,41.882-55.459c0.649-0.257,1.319-0.611,2-1.1
						l18.721-13.372c4.476-3.196,4.198-7.985-0.618-10.645L183.92,89.636c-0.655-0.362-1.286-0.624-1.893-0.806
						c-0.999-2.94-2.183-5.83-3.547-8.654c-8.85-18.313-24.301-32.082-43.506-38.774C115.768,34.71,95.105,35.898,76.792,44.749z"/>
				</g>
			</g>
		</g>
	</g>
	<path fill="#FFFFFF" d="M131.684,50.846c16.684,5.812,30.106,17.774,37.79,33.681c3.229,6.68,5.301,13.764,6.159,21.057
		c3.291,27.976-11.553,55.012-36.931,67.277c-32.838,15.868-72.465,2.063-88.333-30.774c-3.228-6.678-5.299-13.762-6.156-21.055
		c-3.29-27.977,11.551-55.015,36.931-67.277C97.052,46.064,115,45.032,131.684,50.846z"/>
	<g>
		<g>
			<g>
				<path fill="#2ED298" d="M144.955,85.539H92.536c-0.715,0-1.297,0.578-1.297,1.299v36.175c0,0.721,0.582,1.304,1.297,1.304
					h19.713v3.114c0,0.042,0.011,0.085,0.011,0.133h-2.83c-0.652,0-1.196,0.533-1.196,1.19c0,0.659,0.544,1.191,1.196,1.191h19.283
					c1.698,0,2.167-1.833,1.115-2.833c-0.468-0.445-2.667-2.796-2.667-2.796h17.799c0.715,0,1.302-0.583,1.302-1.304V86.838
					C146.257,86.117,145.676,85.539,144.955,85.539L144.955,85.539z M140.279,115.961c0,0.648-0.527,1.177-1.173,1.177H98.388
					c-0.646,0-1.17-0.528-1.17-1.177V91.177c0-0.646,0.524-1.174,1.17-1.174h40.717c0.646,0,1.173,0.528,1.173,1.174V115.961z
					 M142.577,117.339"/>
			</g>
			<g>
				<path fill="#2ED298" d="M118.065,137.352l-4.344-3.345c0.062-0.269,0.099-0.549,0.099-0.835v-25.049
					c0-1.926-1.566-3.496-3.497-3.496H71.672c-1.93,0-3.496,1.57-3.496,3.496v25.049c0,0.286,0.036,0.566,0.107,0.835l-4.357,3.345
					c-0.591,0.454-0.824,1.239-0.584,1.948c0.243,0.705,0.906,1.185,1.654,1.185H117c0.75,0,1.417-0.479,1.657-1.185
					C118.899,138.591,118.66,137.806,118.065,137.352L118.065,137.352z M73.013,109.463"/>
			</g>
			<path fill="#FFFFFF" d="M108.982,131.836v-20.719c0-1.064-0.863-1.928-1.927-1.928H74.939c-1.064,0-1.927,0.863-1.927,1.928
				v20.719H108.982z"/>
			<g>
				<g>
					<path fill="#2ED298" d="M153.32,112.992h-15.87c-0.674,0-1.219,0.543-1.219,1.223v28.113c0,0.672,0.55,1.22,1.219,1.22h15.87
						c0.675,0,1.223-0.544,1.223-1.22v-28.11c0-0.674-1.548-1.226-2.223-1.226H153.32z M145.313,141.485
						c-0.708,0-1.278-0.57-1.278-1.282c0-0.707,0.569-1.276,1.278-1.276s1.275,0.569,1.275,1.276
						C146.588,140.915,146.015,141.485,145.313,141.485L145.313,141.485z M150.595,136.183c0,0.316-0.254,0.57-0.568,0.57H140.9
						c-0.316,0-0.571-0.254-0.571-0.57v-19.03c0-0.314,0.254-0.571,0.571-0.571h9.126c0.314,0,0.568,0.257,0.568,0.571V136.183z
						 M152.02,137.951"/>
				</g>
				<path fill="#FFFFFF" d="M150.696,136.183c0,0.316-0.255,0.57-0.569,0.57h-9.479c-0.315,0-0.57-0.254-0.57-0.57v-19.03
					c0-0.314,0.255-0.571,0.57-0.571h9.479c0.314,0,0.569,0.257,0.569,0.571V136.183z"/>
			</g>
		</g>
	</g>
</g>
</svg>
