<?xml version="1.0" encoding="utf-8"?>
<!-- Generator: Adobe Illustrator 16.0.3, SVG Export Plug-In . SVG Version: 6.00 Build 0)  -->
<!DOCTYPE svg PUBLIC "-//W3C//DTD SVG 1.1//EN" "http://www.w3.org/Graphics/SVG/1.1/DTD/svg11.dtd">
<svg version="1.1" id="圖層_1" xmlns="http://www.w3.org/2000/svg" xmlns:xlink="http://www.w3.org/1999/xlink" x="0px" y="0px"
	 width="220px" height="220px" viewBox="0 0 220 220" enable-background="new 0 0 220 220" xml:space="preserve">
<g>
	<g>
		<g>
			
				<image overflow="visible" opacity="0.19" width="183" height="184" xlink:href="89C081EA.png"  transform="matrix(1 0 0 1 19.5117 21.5762)">
			</image>
			<g>
				<path fill="#FFFFFF" d="M82.742,45.31c36.536-14.457,77.873,3.438,92.331,39.973c14.458,36.537-3.44,77.873-39.975,92.332
					c-36.535,14.455-77.874-3.441-92.33-39.975C28.312,101.103,46.208,59.767,82.742,45.31z"/>
				<path fill="none" stroke="#2ED298" stroke-width="10" stroke-miterlimit="10" d="M82.742,45.31
					c36.536-14.457,77.873,3.438,92.331,39.973c14.458,36.537-3.44,77.873-39.975,92.332c-36.535,14.455-77.874-3.441-92.33-39.975
					C28.312,101.103,46.208,59.767,82.742,45.31z"/>
			</g>
		</g>
		<g>
			<path fill="#2ED298" d="M184.849,129.07c-4.698,2.86-8.564,0.7-8.592-4.8l-0.131-26.453c-0.027-5.5,3.721-7.543,8.328-4.54
				l20.208,13.17c4.607,3.003,4.534,7.8-0.164,10.66L184.849,129.07z"/>
		</g>
	</g>
	<g>
		<g>
			<path fill="#2ED298" d="M141.945,108.378c0,0,1.285-2.482-0.25-5.693c-1.923-4.028-9.472-4.145-13.361-4.145l-10.659-0.392
				c2.375-4.014,5.351-16.567-0.418-19.452c-1.361-0.672-3.517-1.096-4.759-0.22c-1.267,0.896-1.871,1.727-2.478,4.521
				c0,0.075-1.74,9.45-5.317,11.996c-5.551,3.95-8.95,8.261-10.025,9.091c-2.385,1.852-4.312,4.581-4.312,4.581v25.999
				c0,0,26.042,7.75,42.987,2.375c3.098-0.982,3.25-5.125,1.914-6.731c4.804-2.542,4.914-8.884,2.216-9.854
				c4.817-2.845,1.673-8.482,1.673-8.482S141.084,111.087,141.945,108.378z"/>
			<g>
				<path fill="#2ED298" d="M88.926,130.997c0,1.65-1.35,3-3,3h-7.423c-1.65,0-3-1.35-3-3v-19.685c0-1.65,1.35-3,3-3h7.423
					c1.65,0,3,1.35,3,3V130.997z"/>
			</g>
			<rect x="78.437" y="108.313" fill="#2ED298" width="8.489" height="25.685"/>
		</g>
	</g>
</g>
</svg>
