<?xml version="1.0" encoding="utf-8"?>
<!-- Generator: Adobe Illustrator 16.0.3, SVG Export Plug-In . SVG Version: 6.00 Build 0)  -->
<!DOCTYPE svg PUBLIC "-//W3C//DTD SVG 1.1//EN" "http://www.w3.org/Graphics/SVG/1.1/DTD/svg11.dtd">
<svg version="1.1" id="圖層_1" xmlns="http://www.w3.org/2000/svg" xmlns:xlink="http://www.w3.org/1999/xlink" x="0px" y="0px"
	 width="120px" height="120px" viewBox="0 0 120 120" enable-background="new 0 0 120 120" xml:space="preserve">
<g>
	<g>
		<g>
			<image overflow="visible" width="92" height="90" xlink:href="DCB8FA75.png"  transform="matrix(1 0 0 1 14 15)">
			</image>
			<g>
				<g>
					<polyline fill="none" stroke="#F9A53D" stroke-width="2" stroke-miterlimit="10" points="92.151,90.348 92.151,91.348 
						91.151,91.348 					"/>
					
						<line fill="none" stroke="#F9A53D" stroke-width="2" stroke-miterlimit="10" stroke-dasharray="2.0098,2.0098" x1="89.142" y1="91.348" x2="86.127" y2="91.348"/>
					
						<line fill="none" stroke="#F9A53D" stroke-width="2" stroke-miterlimit="10" stroke-dasharray="2.0098,2.0098,2.0098,2.0098" x1="85.122" y1="91.348" x2="29.854" y2="91.348"/>
					<polyline fill="none" stroke="#F9A53D" stroke-width="2" stroke-miterlimit="10" points="28.849,91.348 27.849,91.348 
						27.849,90.348 					"/>
					
						<line fill="none" stroke="#F9A53D" stroke-width="2" stroke-miterlimit="10" stroke-dasharray="1.9553,1.9553" x1="27.849" y1="88.393" x2="27.849" y2="85.459"/>
					
						<line fill="none" stroke="#F9A53D" stroke-width="2" stroke-miterlimit="10" stroke-dasharray="1.9553,1.9553,1.9553,1.9553" x1="27.849" y1="84.481" x2="27.849" y2="30.71"/>
					<polyline fill="none" stroke="#F9A53D" stroke-width="2" stroke-miterlimit="10" points="27.849,29.733 27.849,28.733 
						28.849,28.733 					"/>
					
						<line fill="none" stroke="#F9A53D" stroke-width="2" stroke-miterlimit="10" stroke-dasharray="2.0098,2.0098" x1="30.858" y1="28.733" x2="33.873" y2="28.733"/>
					
						<line fill="none" stroke="#F9A53D" stroke-width="2" stroke-miterlimit="10" stroke-dasharray="2.0098,2.0098,2.0098,2.0098" x1="34.878" y1="28.733" x2="90.146" y2="28.733"/>
					<polyline fill="none" stroke="#F9A53D" stroke-width="2" stroke-miterlimit="10" points="91.151,28.733 92.151,28.733 
						92.151,29.733 					"/>
					
						<line fill="none" stroke="#F9A53D" stroke-width="2" stroke-miterlimit="10" stroke-dasharray="1.9553,1.9553" x1="92.151" y1="31.688" x2="92.151" y2="34.621"/>
					
						<line fill="none" stroke="#F9A53D" stroke-width="2" stroke-miterlimit="10" stroke-dasharray="1.9553,1.9553,1.9553,1.9553" x1="92.151" y1="35.599" x2="92.151" y2="89.37"/>
				</g>
			</g>
		</g>
		
			<text transform="matrix(1 0 0 1 37.1982 75.8848)" display="none" fill="#588CCC" font-family="'Arial-BoldMT'" font-size="31.6977">0.5</text>
	</g>
	<g>
		
			<polygon fill-rule="evenodd" clip-rule="evenodd" fill="none" stroke="#F9A53D" stroke-width="3" stroke-linecap="round" stroke-linejoin="round" stroke-miterlimit="10" points="
			86.519,68.951 76.353,64.508 69.458,68.193 58.61,65.936 49.077,68.951 37.577,64.648 27.849,67.797 27.849,28.652 92.151,28.652 
			92.151,66.078 		"/>
		<rect x="27.849" y="28.733" fill-rule="evenodd" clip-rule="evenodd" fill="#F9A53D" width="64.303" height="10.482"/>
		
			<text transform="matrix(1 0 0 1 37.1982 75.8848)" display="none" fill="#588CCC" font-family="'Arial-BoldMT'" font-size="31.6977">0.5</text>
	</g>
</g>
</svg>
