<?xml version="1.0" encoding="utf-8"?>
<!-- Generator: Adobe Illustrator 16.0.3, SVG Export Plug-In . SVG Version: 6.00 Build 0)  -->
<!DOCTYPE svg PUBLIC "-//W3C//DTD SVG 1.1//EN" "http://www.w3.org/Graphics/SVG/1.1/DTD/svg11.dtd">
<svg version="1.1" id="圖層_1" xmlns="http://www.w3.org/2000/svg" xmlns:xlink="http://www.w3.org/1999/xlink" x="0px" y="0px"
	 width="220px" height="220px" viewBox="0 0 220 220" enable-background="new 0 0 220 220" xml:space="preserve">
<g>
	<g>
		<g>
			
				<image overflow="visible" opacity="0.19" width="183" height="184" xlink:href="462FD28A.png"  transform="matrix(1 0 0 1 19.5117 21.3242)">
			</image>
			<g>
				<path fill="#FFFFFF" d="M82.742,45.31c36.536-14.457,77.873,3.438,92.331,39.973c14.458,36.536-3.44,77.872-39.975,92.331
					c-36.535,14.455-77.874-3.441-92.33-39.975C28.312,101.103,46.208,59.767,82.742,45.31z"/>
				<path fill="none" stroke="#2ED298" stroke-width="10" stroke-miterlimit="10" d="M82.742,45.31
					c36.536-14.457,77.873,3.438,92.331,39.973c14.458,36.536-3.44,77.872-39.975,92.331c-36.535,14.455-77.874-3.441-92.33-39.975
					C28.312,101.103,46.208,59.767,82.742,45.31z"/>
			</g>
		</g>
		<g>
			<path fill="#2ED298" d="M184.849,129.069c-4.698,2.86-8.564,0.7-8.592-4.8l-0.131-26.452c-0.027-5.5,3.721-7.543,8.328-4.54
				l20.208,13.168c4.607,3.003,4.534,7.8-0.164,10.66L184.849,129.069z"/>
		</g>
	</g>
	<path fill="#2ED298" d="M136.334,103.726c-0.143-11.102-9.168-20.059-20.308-20.059c-8.715,0-16.137,5.508-19.015,13.227
		c-1.705-2.326-4.434-3.854-7.547-3.854c-5.175,0-9.378,4.195-9.378,9.377c0,0.426,0.078,0.834,0.13,1.248
		c-5.584,2.381-9.497,7.918-9.497,14.374c0,8.631,6.996,15.627,15.621,15.627h18.75v-9.375h-6.25l9.375-12.5l9.375,12.5h-6.25v9.375
		h18.75c8.631,0,15.627-6.996,15.627-15.627C145.717,111.633,141.852,106.138,136.334,103.726"/>
</g>
</svg>
