<?xml version="1.0" encoding="utf-8"?>
<!-- Generator: Adobe Illustrator 16.0.3, SVG Export Plug-In . SVG Version: 6.00 Build 0)  -->
<!DOCTYPE svg PUBLIC "-//W3C//DTD SVG 1.1//EN" "http://www.w3.org/Graphics/SVG/1.1/DTD/svg11.dtd">
<svg version="1.1" id="圖層_1" xmlns="http://www.w3.org/2000/svg" xmlns:xlink="http://www.w3.org/1999/xlink" x="0px" y="0px"
	 width="120px" height="120px" viewBox="0 0 120 120" enable-background="new 0 0 120 120" xml:space="preserve">
<g>
	<g>
		<g>
			<path fill-rule="evenodd" clip-rule="evenodd" fill="#F9A53D" d="M60.002,22C39.014,22,22,39.015,22,59.998
				C22,80.987,39.014,98,60.002,98C80.993,98,98,80.987,98,59.998C98,39.015,80.993,22,60.002,22z M59.95,60.054
				c0,0-0.078-31.632,0.048-31.632c6.659,0,12.836,2.063,17.928,5.582L59.95,60.054z"/>
		</g>
	</g>
	<path fill-rule="evenodd" clip-rule="evenodd" fill="#FFFFFF" d="M59.998,28.422c6.659,0,12.836,2.063,17.928,5.582L59.95,60.054
		C59.95,60.054,59.872,28.422,59.998,28.422z"/>
</g>
</svg>
