<?xml version="1.0" encoding="utf-8"?>
<!-- Generator: Adobe Illustrator 16.0.3, SVG Export Plug-In . SVG Version: 6.00 Build 0)  -->
<!DOCTYPE svg PUBLIC "-//W3C//DTD SVG 1.1//EN" "http://www.w3.org/Graphics/SVG/1.1/DTD/svg11.dtd">
<svg version="1.1" id="圖層_1" xmlns="http://www.w3.org/2000/svg" xmlns:xlink="http://www.w3.org/1999/xlink" x="0px" y="0px"
	 width="120px" height="120px" viewBox="0 0 120 120" enable-background="new 0 0 120 120" xml:space="preserve">
<g>
	<g>
		
			<polygon fill="#FFFFFF" stroke="#76B9E0" stroke-width="3" stroke-linecap="round" stroke-linejoin="round" stroke-miterlimit="10" points="
			53.386,35.717 50.356,38.682 22.5,38.682 22.5,5.721 56.351,5.721 56.351,32.817 		"/>
		<rect x="22.5" y="5.763" fill="#76B9E0" width="33.851" height="5.519"/>
		
			<polyline fill="none" stroke="#76B9E0" stroke-width="3" stroke-linecap="round" stroke-linejoin="round" stroke-miterlimit="10" points="
			48.7,37.071 48.7,31.601 54.383,31.601 		"/>
		
			<text transform="matrix(1 0 0 1 34.854 30.584)" display="none" opacity="0.5" fill="#7099CC" enable-background="new    " font-family="'Arial-BoldMT'" font-size="16.6867">1</text>
	</g>
	<g>
		
			<polygon fill="#FFFFFF" stroke="#76B9E0" stroke-width="3" stroke-linecap="round" stroke-linejoin="round" stroke-miterlimit="10" points="
			53.386,73.63 50.356,76.596 22.5,76.596 22.5,43.633 56.351,43.633 56.351,70.73 		"/>
		<rect x="22.5" y="43.676" fill="#76B9E0" width="33.851" height="5.518"/>
		
			<polyline fill="none" stroke="#76B9E0" stroke-width="3" stroke-linecap="round" stroke-linejoin="round" stroke-miterlimit="10" points="
			48.7,74.984 48.7,69.514 54.383,69.514 		"/>
		
			<text transform="matrix(1 0 0 1 34.854 68.4961)" display="none" opacity="0.5" fill="#7099CC" enable-background="new    " font-family="'Arial-BoldMT'" font-size="16.6867">1</text>
	</g>
	<g>
		
			<polygon fill="#FFFFFF" stroke="#76B9E0" stroke-width="3" stroke-linecap="round" stroke-linejoin="round" stroke-miterlimit="10" points="
			53.386,111.314 50.356,114.279 22.5,114.279 22.5,81.316 56.351,81.316 56.351,108.416 		"/>
		<rect x="22.5" y="81.359" fill="#76B9E0" width="33.851" height="5.518"/>
		
			<polyline fill="none" stroke="#76B9E0" stroke-width="3" stroke-linecap="round" stroke-linejoin="round" stroke-miterlimit="10" points="
			48.7,112.669 48.7,107.197 54.383,107.197 		"/>
		
			<text transform="matrix(1 0 0 1 34.854 106.1797)" display="none" opacity="0.5" fill="#7099CC" enable-background="new    " font-family="'Arial-BoldMT'" font-size="16.6867">1</text>
	</g>
	<g>
		
			<polygon fill="#FFFFFF" stroke="#76B9E0" stroke-width="3" stroke-linecap="round" stroke-linejoin="round" stroke-miterlimit="10" points="
			94.535,73.63 91.506,76.596 63.648,76.596 63.648,43.633 97.5,43.633 97.5,70.73 		"/>
		<rect x="63.648" y="43.676" fill="#76B9E0" width="33.852" height="5.518"/>
		
			<polyline fill="none" stroke="#76B9E0" stroke-width="3" stroke-linecap="round" stroke-linejoin="round" stroke-miterlimit="10" points="
			89.85,74.984 89.85,69.514 95.532,69.514 		"/>
		
			<text transform="matrix(1 0 0 1 76.0039 68.4961)" display="none" opacity="0.5" fill="#7099CC" enable-background="new    " font-family="'Arial-BoldMT'" font-size="16.6867">1</text>
	</g>
	<g>
		
			<polygon fill="#FFFFFF" stroke="#76B9E0" stroke-width="3" stroke-linecap="round" stroke-linejoin="round" stroke-miterlimit="10" points="
			94.535,111.314 91.506,114.279 63.648,114.279 63.648,81.316 97.5,81.316 97.5,108.416 		"/>
		<rect x="63.648" y="81.359" fill="#76B9E0" width="33.852" height="5.518"/>
		
			<polyline fill="none" stroke="#76B9E0" stroke-width="3" stroke-linecap="round" stroke-linejoin="round" stroke-miterlimit="10" points="
			89.85,112.669 89.85,107.197 95.532,107.197 		"/>
		
			<text transform="matrix(1 0 0 1 76.0039 106.1797)" display="none" opacity="0.5" fill="#7099CC" enable-background="new    " font-family="'Arial-BoldMT'" font-size="16.6867">1</text>
	</g>
	<g>
		
			<polygon fill="#FFFFFF" stroke="#76B9E0" stroke-width="3" stroke-linecap="round" stroke-linejoin="round" stroke-miterlimit="10" points="
			94.535,35.717 91.506,38.682 63.648,38.682 63.648,5.721 97.5,5.721 97.5,32.817 		"/>
		<rect x="63.648" y="5.763" fill="#76B9E0" width="33.852" height="5.519"/>
		
			<polyline fill="none" stroke="#76B9E0" stroke-width="3" stroke-linecap="round" stroke-linejoin="round" stroke-miterlimit="10" points="
			89.85,37.071 89.85,31.601 95.532,31.601 		"/>
		
			<text transform="matrix(1 0 0 1 76.0039 30.584)" display="none" opacity="0.5" fill="#7099CC" enable-background="new    " font-family="'Arial-BoldMT'" font-size="16.6867">1</text>
	</g>
</g>
</svg>
