<?xml version="1.0" encoding="utf-8"?>
<!-- Generator: Adobe Illustrator 16.0.3, SVG Export Plug-In . SVG Version: 6.00 Build 0)  -->
<!DOCTYPE svg PUBLIC "-//W3C//DTD SVG 1.1//EN" "http://www.w3.org/Graphics/SVG/1.1/DTD/svg11.dtd">
<svg version="1.1" id="圖層_1" xmlns="http://www.w3.org/2000/svg" xmlns:xlink="http://www.w3.org/1999/xlink" x="0px" y="0px"
	 width="60px" height="60px" viewBox="0 0 60 60" enable-background="new 0 0 60 60" xml:space="preserve">
<g>
	<g>
		<path fill="#76B9E0" d="M30,11c-10.48,0-18.976,8.507-18.976,19S19.52,49,30,49c10.481,0,18.976-8.507,18.976-19S40.481,11,30,11z
			 M37.875,37.321h-15.75c-0.915,0-1.654-0.744-1.654-1.656c0-0.914,0.739-1.656,1.654-1.656h15.75c0.914,0,1.654,0.742,1.654,1.656
			C39.529,36.577,38.789,37.321,37.875,37.321z M36.666,21.46c1.932,0,3.5,1.57,3.5,3.505c0,1.936-1.568,3.505-3.5,3.505
			c-1.931,0-3.5-1.569-3.5-3.505C33.166,23.03,34.735,21.46,36.666,21.46z M23.545,21.459c1.932,0,3.501,1.57,3.501,3.506
			c0,1.938-1.569,3.506-3.501,3.506c-1.934,0-3.499-1.567-3.499-3.506C20.046,23.029,21.611,21.459,23.545,21.459z"/>
	</g>
</g>
</svg>
