<?xml version="1.0" encoding="utf-8"?>
<!-- Generator: Adobe Illustrator 16.0.3, SVG Export Plug-In . SVG Version: 6.00 Build 0)  -->
<!DOCTYPE svg PUBLIC "-//W3C//DTD SVG 1.1//EN" "http://www.w3.org/Graphics/SVG/1.1/DTD/svg11.dtd">
<svg version="1.1" id="圖層_1" xmlns="http://www.w3.org/2000/svg" xmlns:xlink="http://www.w3.org/1999/xlink" x="0px" y="0px"
	 width="220px" height="220px" viewBox="0 0 220 220" enable-background="new 0 0 220 220" xml:space="preserve">
<g display="none">
	<g display="inline">
		<g>
			
				<image overflow="visible" opacity="0.19" width="183" height="183" xlink:href="7B7DC46A.png"  transform="matrix(1 0 0 1 18.2305 23.3242)">
			</image>
			<g>
				<circle fill="#FFFFFF" cx="108.043" cy="112.701" r="71.143"/>
				<circle fill="none" stroke="#75E088" stroke-width="10" stroke-miterlimit="10" cx="108.043" cy="112.701" r="71.143"/>
			</g>
		</g>
		<g>
			<path fill="#75E088" d="M129.307,37.716c2.629,4.83,0.285,8.588-5.209,8.349l-26.428-1.15c-5.495-0.239-7.354-4.081-4.131-8.538
				l14.132-19.547c3.223-4.457,8.011-4.15,10.64,0.68L129.307,37.716z"/>
		</g>
	</g>
	<path display="inline" fill="#75D188" d="M136.334,103.728c-0.143-11.104-9.168-20.061-20.308-20.061
		c-8.715,0-16.137,5.508-19.015,13.227c-1.705-2.326-4.434-3.854-7.547-3.854c-5.175,0-9.378,4.195-9.378,9.377
		c0,0.428,0.078,0.836,0.13,1.25c-5.584,2.381-9.497,7.918-9.497,14.373c0,8.631,6.996,15.627,15.621,15.627h18.75v-9.375h-6.25
		l9.375-12.5l9.375,12.5h-6.25v9.375h18.75c8.631,0,15.627-6.996,15.627-15.627C145.717,111.634,141.852,106.14,136.334,103.728"/>
</g>
<g>
	<g>
		
			<image overflow="visible" opacity="0.25" width="165" height="188" xlink:href="7B7DC46E.png"  transform="matrix(1 0 0 1 27.2305 4.3242)">
		</image>
		<g>
			<g>
				<g>
					<circle fill="#FFFFFF" cx="108.022" cy="107.873" r="71.143"/>
					<path fill="#2ED298" d="M177.772,77.331c-8.158-18.631-23.083-32.969-42.025-40.375c-2.921-1.143-5.894-2.098-8.903-2.869
						c-0.229-0.586-0.538-1.197-0.95-1.822l-13.252-20.152c-3.022-4.596-7.819-4.502-10.66,0.209L90.099,32.021
						c-0.433,0.717-0.736,1.412-0.942,2.078c-23.318,5.979-42.971,22.824-52.05,46.051c-15.288,39.102,4.088,83.352,43.191,98.641
						c7.947,3.105,16.262,4.852,24.714,5.186c32.404,1.283,62.113-18.16,73.927-48.379
						C186.345,116.655,185.93,95.962,177.772,77.331z"/>
				</g>
			</g>
		</g>
	</g>
	<path fill="#FFFFFF" d="M169.625,131.956c-10.263,26.254-36.071,43.143-64.218,42.027c-7.337-0.291-14.561-1.807-21.468-4.508
		c-33.968-13.279-50.799-51.719-37.52-85.688c10.263-26.252,36.07-43.141,64.217-42.025c7.338,0.289,14.561,1.807,21.47,4.508
		c16.455,6.432,29.419,18.887,36.506,35.07C175.699,97.526,176.059,115.499,169.625,131.956z"/>
	<path fill="#2ED298" d="M135.319,100.932c-0.142-11.103-9.168-20.061-20.308-20.061c-8.715,0-16.137,5.508-19.015,13.227
		c-1.705-2.326-4.434-3.853-7.547-3.853c-5.175,0-9.378,4.195-9.378,9.376c0,0.429,0.078,0.836,0.13,1.251
		c-5.584,2.38-9.497,7.917-9.497,14.372c0,8.631,6.996,15.627,15.621,15.627h18.75v-9.374h-6.25l9.375-12.5l9.375,12.5h-6.25v9.374
		h18.75c8.63,0,15.625-6.996,15.625-15.627C144.701,108.838,140.837,103.344,135.319,100.932"/>
</g>
</svg>
